<svg width="1280" height="832" viewBox="0 0 1280 832" fill="none" xmlns="http://www.w3.org/2000/svg">
<g clip-path="url(#clip0_2_5)">
<rect width="1280" height="832" fill="#140A06"/>
<circle cx="639.5" cy="833.5" r="692.5" fill="url(#paint0_radial_2_5)"/>
<circle cx="639.5" cy="833.5" r="691.5" stroke="url(#paint1_linear_2_5)" stroke-opacity="0.25" stroke-width="2"/>
<circle cx="639.5" cy="833.5" r="569.5" fill="url(#paint2_radial_2_5)"/>
<circle cx="639.5" cy="833.5" r="568.5" stroke="url(#paint3_linear_2_5)" stroke-opacity="0.25" stroke-width="2"/>
<circle cx="639.5" cy="833.5" r="426.5" fill="url(#paint4_radial_2_5)"/>
<circle cx="639.5" cy="833.5" r="425.5" stroke="url(#paint5_linear_2_5)" stroke-opacity="0.25" stroke-width="2"/>
<g clip-path="url(#clip1_2_5)">
<g opacity="0.7">
<path opacity="0.11" d="M363.796 103.173C364.438 103.269 365.036 102.827 365.133 102.185C365.229 101.544 364.787 100.945 364.146 100.849C363.504 100.752 362.905 101.194 362.809 101.836C362.712 102.478 363.154 103.076 363.796 103.173Z" fill="white"/>
<path d="M366.607 110.126C367.088 110.199 367.537 109.867 367.609 109.386C367.682 108.905 367.35 108.456 366.869 108.384C366.388 108.312 365.939 108.643 365.867 109.124C365.794 109.605 366.126 110.054 366.607 110.126Z" fill="white"/>
<path d="M387.608 100.816C388.089 100.889 388.538 100.557 388.61 100.076C388.682 99.5951 388.351 99.1463 387.87 99.074C387.389 99.0016 386.94 99.333 386.868 99.8142C386.795 100.295 387.127 100.744 387.608 100.816Z" fill="white"/>
<path d="M338.419 92.2282C338.9 92.3005 339.349 91.9691 339.421 91.488C339.494 91.0068 339.162 90.5581 338.681 90.4858C338.2 90.4134 337.751 90.7448 337.679 91.2259C337.607 91.7071 337.938 92.1558 338.419 92.2282Z" fill="white"/>
<path opacity="0.11" d="M307.573 101.842C308.215 101.939 308.813 101.497 308.91 100.855C309.007 100.213 308.565 99.6148 307.923 99.5183C307.281 99.4218 306.683 99.8638 306.586 100.505C306.49 101.147 306.932 101.746 307.573 101.842Z" fill="white"/>
<path d="M298.464 87.4072C298.785 87.4555 299.084 87.2347 299.132 86.9141C299.18 86.5935 298.959 86.2945 298.639 86.2463C298.318 86.1981 298.019 86.4189 297.971 86.7395C297.923 87.0601 298.144 87.359 298.464 87.4072Z" fill="white"/>
<path d="M358.643 125.557C358.964 125.605 359.262 125.384 359.311 125.064C359.359 124.743 359.138 124.444 358.818 124.396C358.497 124.348 358.198 124.568 358.15 124.889C358.102 125.21 358.322 125.509 358.643 125.557Z" fill="white"/>
<path d="M485.248 144.601C485.569 144.649 485.868 144.429 485.916 144.108C485.964 143.787 485.744 143.488 485.423 143.44C485.102 143.392 484.804 143.613 484.755 143.933C484.707 144.254 484.928 144.553 485.248 144.601Z" fill="white"/>
<path d="M553.263 122.758C553.584 122.806 553.883 122.585 553.931 122.264C553.979 121.944 553.759 121.645 553.438 121.597C553.117 121.548 552.818 121.769 552.77 122.09C552.722 122.41 552.943 122.709 553.263 122.758Z" fill="white"/>
<path d="M569.541 168.56C569.861 168.609 570.16 168.388 570.208 168.067C570.257 167.747 570.036 167.448 569.715 167.4C569.395 167.351 569.096 167.572 569.047 167.893C568.999 168.213 569.22 168.512 569.541 168.56Z" fill="white"/>
<path d="M167.439 81.9534C167.759 82.0016 168.058 81.7808 168.106 81.4602C168.155 81.1397 167.934 80.8407 167.613 80.7924C167.293 80.7442 166.994 80.9651 166.945 81.2856C166.897 81.6062 167.118 81.9052 167.439 81.9534Z" fill="white"/>
<path opacity="0.11" d="M163.449 49.2855C163.769 49.3337 164.068 49.1129 164.116 48.7923C164.165 48.4717 163.944 48.1727 163.623 48.1245C163.303 48.0763 163.004 48.2971 162.955 48.6177C162.907 48.9383 163.128 49.2373 163.449 49.2855Z" fill="white"/>
<path opacity="0.11" d="M136.47 58.888C136.79 58.9362 137.089 58.7155 137.137 58.3949C137.186 58.0743 136.965 57.7753 136.644 57.7271C136.324 57.6789 136.025 57.8997 135.976 58.2203C135.928 58.5409 136.149 58.8398 136.47 58.888Z" fill="white"/>
<path opacity="0.11" d="M150.392 96.6146C150.712 96.6629 151.011 96.442 151.06 96.1214C151.108 95.8009 150.887 95.5019 150.566 95.4537C150.246 95.4055 149.947 95.6263 149.899 95.9468C149.85 96.2674 150.071 96.5664 150.392 96.6146Z" fill="white"/>
<path opacity="0.11" d="M292.098 94.1684C292.419 94.2166 292.718 93.9958 292.766 93.6752C292.814 93.3546 292.594 93.0557 292.273 93.0075C291.952 92.9592 291.653 93.18 291.605 93.5006C291.557 93.8212 291.778 94.1201 292.098 94.1684Z" fill="white"/>
<path opacity="0.11" d="M354.343 146.294C354.664 146.342 354.963 146.122 355.011 145.801C355.059 145.48 354.839 145.181 354.518 145.133C354.197 145.085 353.898 145.306 353.85 145.626C353.802 145.947 354.023 146.246 354.343 146.294Z" fill="white"/>
<path opacity="0.11" d="M466.715 157.252C467.035 157.3 467.334 157.079 467.383 156.759C467.431 156.438 467.21 156.139 466.889 156.091C466.569 156.043 466.27 156.264 466.222 156.584C466.173 156.905 466.394 157.204 466.715 157.252Z" fill="white"/>
<path opacity="0.3" d="M196.34 71.4538C196.66 71.502 196.959 71.2813 197.007 70.9607C197.056 70.6401 196.835 70.3411 196.514 70.2929C196.194 70.2447 195.895 70.4655 195.847 70.7861C195.798 71.1067 196.019 71.4056 196.34 71.4538Z" fill="white"/>
<path d="M334.625 60.1806C334.946 60.2288 335.244 60.0079 335.293 59.6874C335.341 59.3668 335.12 59.0678 334.8 59.0196C334.479 58.9714 334.18 59.1922 334.132 59.5128C334.084 59.8333 334.304 60.1324 334.625 60.1806Z" fill="white"/>
<path d="M424.234 72.4715C424.555 72.5197 424.854 72.2989 424.902 71.9783C424.95 71.6577 424.729 71.3587 424.409 71.3105C424.088 71.2623 423.789 71.4831 423.741 71.8037C423.693 72.1243 423.913 72.4232 424.234 72.4715Z" fill="white"/>
<path d="M287.099 107.671C287.42 107.719 287.719 107.498 287.767 107.178C287.815 106.857 287.595 106.558 287.274 106.51C286.953 106.462 286.654 106.682 286.606 107.003C286.558 107.324 286.779 107.623 287.099 107.671Z" fill="white"/>
<path opacity="0.3" d="M246.447 101.558C246.767 101.606 247.066 101.385 247.114 101.065C247.163 100.744 246.942 100.445 246.621 100.397C246.301 100.349 246.002 100.57 245.953 100.89C245.905 101.211 246.126 101.51 246.447 101.558Z" fill="white"/>
<path opacity="0.11" d="M204.247 58.3916C204.568 58.4398 204.867 58.2191 204.915 57.8985C204.963 57.5779 204.742 57.2789 204.422 57.2307C204.101 57.1825 203.802 57.4033 203.754 57.7239C203.706 58.0445 203.927 58.3434 204.247 58.3916Z" fill="white"/>
<path opacity="0.3" d="M342.988 75.6947C343.308 75.7429 343.607 75.522 343.655 75.2015C343.704 74.8809 343.483 74.5819 343.162 74.5337C342.842 74.4855 342.543 74.7063 342.495 75.0269C342.446 75.3474 342.667 75.6465 342.988 75.6947Z" fill="white"/>
<path opacity="0.3" d="M295.316 120.192C295.636 120.24 295.935 120.02 295.983 119.699C296.032 119.378 295.811 119.079 295.49 119.031C295.17 118.983 294.871 119.204 294.822 119.524C294.774 119.845 294.995 120.144 295.316 120.192Z" fill="white"/>
<path opacity="0.3" d="M224.171 115.429C224.491 115.477 224.79 115.257 224.838 114.936C224.887 114.616 224.666 114.317 224.345 114.268C224.025 114.22 223.726 114.441 223.678 114.762C223.629 115.082 223.85 115.381 224.171 115.429Z" fill="white"/>
<path opacity="0.3" d="M213.182 73.9901C213.502 74.0383 213.801 73.8176 213.85 73.497C213.898 73.1764 213.677 72.8774 213.356 72.8292C213.036 72.781 212.737 73.0018 212.689 73.3224C212.64 73.643 212.861 73.9419 213.182 73.9901Z" fill="white"/>
<path opacity="0.3" d="M574.662 126.572C574.983 126.62 575.282 126.399 575.33 126.078C575.378 125.758 575.157 125.459 574.837 125.411C574.516 125.362 574.217 125.583 574.169 125.904C574.121 126.224 574.342 126.523 574.662 126.572Z" fill="white"/>
<path opacity="0.11" d="M484.744 88.697C485.065 88.7452 485.364 88.5244 485.412 88.2038C485.46 87.8832 485.239 87.5843 484.919 87.5361C484.598 87.4879 484.299 87.7087 484.251 88.0292C484.203 88.3498 484.424 88.6488 484.744 88.697Z" fill="white"/>
<path opacity="0.11" d="M555.228 149.183C555.549 149.231 555.848 149.011 555.896 148.69C555.944 148.369 555.724 148.07 555.403 148.022C555.082 147.974 554.783 148.195 554.735 148.515C554.687 148.836 554.908 149.135 555.228 149.183Z" fill="white"/>
<path opacity="0.3" d="M407.512 132.314C408.154 132.411 408.753 131.969 408.849 131.327C408.946 130.685 408.504 130.087 407.862 129.99C407.22 129.894 406.622 130.336 406.525 130.978C406.429 131.619 406.871 132.218 407.512 132.314Z" fill="white"/>
<path opacity="0.11" d="M444.398 120.047C445.04 120.143 445.639 119.701 445.735 119.06C445.832 118.418 445.39 117.819 444.748 117.723C444.106 117.626 443.508 118.068 443.411 118.71C443.315 119.352 443.757 119.95 444.398 120.047Z" fill="white"/>
<path d="M447.166 99.6779C447.648 99.7503 448.096 99.4189 448.169 98.9377C448.241 98.4565 447.91 98.0078 447.428 97.9355C446.947 97.8631 446.499 98.1945 446.426 98.6757C446.354 99.1568 446.685 99.6055 447.166 99.6779Z" fill="white"/>
<path d="M397.926 154.631C398.408 154.703 398.856 154.372 398.929 153.891C399.001 153.409 398.67 152.961 398.188 152.888C397.707 152.816 397.259 153.147 397.186 153.629C397.114 154.11 397.445 154.558 397.926 154.631Z" fill="white"/>
<path d="M588.984 195.241C589.465 195.314 589.914 194.982 589.986 194.501C590.059 194.02 589.727 193.571 589.246 193.499C588.765 193.427 588.316 193.758 588.244 194.239C588.172 194.72 588.503 195.169 588.984 195.241Z" fill="white"/>
<path d="M213.565 128.682C214.046 128.754 214.495 128.423 214.567 127.941C214.639 127.46 214.308 127.012 213.827 126.939C213.346 126.867 212.897 127.198 212.824 127.679C212.752 128.161 213.084 128.609 213.565 128.682Z" fill="white"/>
<path d="M138.339 103.711C138.82 103.783 139.269 103.452 139.341 102.97C139.414 102.489 139.082 102.041 138.601 101.968C138.12 101.896 137.671 102.227 137.599 102.708C137.527 103.19 137.858 103.638 138.339 103.711Z" fill="white"/>
<path d="M131.959 78.9955C132.44 79.0679 132.889 78.7365 132.961 78.2554C133.033 77.7742 132.702 77.3255 132.221 77.2531C131.74 77.1807 131.291 77.5122 131.219 77.9933C131.146 78.4745 131.478 78.9232 131.959 78.9955Z" fill="white"/>
<path d="M417.546 107.102C418.027 107.174 418.476 106.843 418.548 106.362C418.62 105.881 418.289 105.432 417.808 105.36C417.327 105.287 416.878 105.619 416.806 106.1C416.733 106.581 417.065 107.03 417.546 107.102Z" fill="white"/>
<path d="M310.033 134.878C310.514 134.95 310.962 134.619 311.035 134.138C311.107 133.657 310.776 133.208 310.295 133.135C309.813 133.063 309.365 133.394 309.292 133.876C309.22 134.357 309.551 134.805 310.033 134.878Z" fill="white"/>
<path d="M452.624 181.861C453.105 181.934 453.554 181.602 453.626 181.121C453.699 180.64 453.367 180.191 452.886 180.119C452.405 180.047 451.956 180.378 451.884 180.859C451.811 181.34 452.143 181.789 452.624 181.861Z" fill="white"/>
<path d="M612.458 165.513C612.939 165.585 613.388 165.254 613.46 164.773C613.532 164.292 613.201 163.843 612.72 163.771C612.239 163.698 611.79 164.03 611.717 164.511C611.645 164.992 611.977 165.441 612.458 165.513Z" fill="white"/>
<path d="M631.2 135.67C631.682 135.742 632.13 135.411 632.203 134.93C632.275 134.449 631.944 134 631.462 133.928C630.981 133.855 630.533 134.187 630.46 134.668C630.388 135.149 630.719 135.598 631.2 135.67Z" fill="white"/>
<path opacity="0.3" d="M494.994 107.466C495.635 107.562 496.234 107.12 496.33 106.478C496.427 105.837 495.985 105.238 495.343 105.142C494.701 105.045 494.103 105.487 494.006 106.129C493.91 106.771 494.352 107.369 494.994 107.466Z" fill="white"/>
<path d="M501.19 66.2311C501.832 66.3276 502.43 65.8856 502.527 65.2439C502.623 64.6022 502.181 64.0037 501.54 63.9072C500.898 63.8107 500.299 64.2527 500.203 64.8944C500.106 65.5361 500.548 66.1346 501.19 66.2311Z" fill="white"/>
<path d="M522.979 124.74C523.46 124.812 523.909 124.481 523.981 124C524.054 123.519 523.722 123.07 523.241 122.998C522.76 122.925 522.311 123.257 522.239 123.738C522.167 124.219 522.498 124.668 522.979 124.74Z" fill="white"/>
<path opacity="0.3" d="M554.552 106.327C555.194 106.424 555.792 105.982 555.889 105.34C555.985 104.698 555.543 104.1 554.902 104.003C554.26 103.907 553.662 104.349 553.565 104.99C553.468 105.632 553.91 106.231 554.552 106.327Z" fill="white"/>
<path opacity="0.3" d="M605.845 156.207C606.486 156.303 607.085 155.861 607.181 155.219C607.278 154.578 606.836 153.979 606.194 153.883C605.552 153.786 604.954 154.228 604.857 154.87C604.761 155.512 605.203 156.11 605.845 156.207Z" fill="white"/>
<path opacity="0.3" d="M537.722 147.148C538.364 147.244 538.963 146.802 539.059 146.161C539.156 145.519 538.714 144.92 538.072 144.824C537.43 144.727 536.832 145.169 536.735 145.811C536.639 146.453 537.081 147.051 537.722 147.148Z" fill="white"/>
<path opacity="0.3" d="M202.891 106.885C203.533 106.982 204.132 106.54 204.228 105.898C204.325 105.257 203.883 104.658 203.241 104.562C202.599 104.465 202.001 104.907 201.904 105.549C201.808 106.191 202.25 106.789 202.891 106.885Z" fill="white"/>
<path opacity="0.3" d="M160.65 67.8673C161.292 67.9638 161.89 67.5218 161.987 66.8801C162.083 66.2384 161.641 65.64 160.999 65.5435C160.358 65.4469 159.759 65.8889 159.663 66.5306C159.566 67.1724 160.008 67.7708 160.65 67.8673Z" fill="white"/>
<path opacity="0.11" d="M584.654 135.204C585.296 135.3 585.894 134.858 585.991 134.216C586.087 133.575 585.645 132.976 585.003 132.88C584.362 132.783 583.763 133.225 583.667 133.867C583.57 134.509 584.012 135.107 584.654 135.204Z" fill="white"/>
<path opacity="0.3" d="M246.666 60.6135C247.308 60.71 247.906 60.2679 248.003 59.6262C248.099 58.9845 247.657 58.3861 247.016 58.2896C246.374 58.193 245.775 58.635 245.679 59.2767C245.582 59.9184 246.024 60.5169 246.666 60.6135Z" fill="white"/>
<path opacity="0.11" d="M232.733 46.6402C233.375 46.7368 233.973 46.2947 234.07 45.653C234.166 45.0113 233.724 44.4129 233.082 44.3163C232.441 44.2198 231.842 44.6618 231.746 45.3035C231.649 45.9452 232.091 46.5437 232.733 46.6402Z" fill="white"/>
<path opacity="0.3" d="M222.501 83.1106C223.142 83.2072 223.741 82.7652 223.837 82.1235C223.934 81.4818 223.492 80.8833 222.85 80.7868C222.208 80.6903 221.61 81.1323 221.513 81.774C221.417 82.4157 221.859 83.0141 222.501 83.1106Z" fill="white"/>
<path d="M258.88 87.9863C259.361 88.0587 259.81 87.7272 259.882 87.2461C259.955 86.7649 259.623 86.3162 259.142 86.2439C258.661 86.1715 258.212 86.5029 258.14 86.984C258.067 87.4652 258.399 87.9139 258.88 87.9863Z" fill="white"/>
<path d="M797.045 21.4195C797.365 21.4677 797.664 21.2469 797.713 20.9263C797.761 20.6057 797.54 20.3068 797.219 20.2586C796.899 20.2104 796.6 20.4312 796.552 20.7517C796.503 21.0723 796.724 21.3713 797.045 21.4195Z" fill="white"/>
<path opacity="0.11" d="M694.222 10.1095C694.542 10.1577 694.841 9.93687 694.89 9.61628C694.938 9.2957 694.717 8.99672 694.396 8.9485C694.076 8.90029 693.777 9.1211 693.729 9.44168C693.68 9.76227 693.901 10.0612 694.222 10.1095Z" fill="white"/>
<path opacity="0.11" d="M782.734 2.04072C783.055 2.08893 783.354 1.86813 783.402 1.54754C783.45 1.22695 783.229 0.927993 782.909 0.879779C782.588 0.831566 782.289 1.05236 782.241 1.37294C782.193 1.69353 782.413 1.99251 782.734 2.04072Z" fill="white"/>
<path d="M625.433 7.48756C625.914 7.55992 626.362 7.22851 626.435 6.74736C626.507 6.26621 626.176 5.81752 625.695 5.74516C625.213 5.6728 624.765 6.00417 624.692 6.48532C624.62 6.96647 624.951 7.4152 625.433 7.48756Z" fill="white"/>
<path d="M816.49 48.0983C816.972 48.1707 817.42 47.8393 817.493 47.3581C817.565 46.8769 817.234 46.4282 816.752 46.3559C816.271 46.2835 815.823 46.6149 815.75 47.0961C815.678 47.5772 816.009 48.0259 816.49 48.0983Z" fill="white"/>
<path d="M680.13 34.7181C680.611 34.7904 681.06 34.4591 681.132 33.9779C681.205 33.4968 680.873 33.048 680.392 32.9757C679.911 32.9033 679.462 33.2347 679.39 33.7159C679.318 34.197 679.649 34.6457 680.13 34.7181Z" fill="white"/>
<path d="M839.965 18.3705C840.446 18.4428 840.894 18.1115 840.967 17.6303C841.039 17.1492 840.708 16.7004 840.227 16.6281C839.746 16.5557 839.297 16.8871 839.224 17.3683C839.152 17.8494 839.483 18.2981 839.965 18.3705Z" fill="white"/>
<path opacity="0.3" d="M833.351 9.06344C833.993 9.15994 834.591 8.71796 834.688 8.07624C834.784 7.43452 834.342 6.83607 833.7 6.73956C833.059 6.64305 832.46 7.08504 832.364 7.72676C832.267 8.36847 832.709 8.96693 833.351 9.06344Z" fill="white"/>
<path opacity="0.3" d="M765.228 0.00453626C765.87 0.101045 766.469 -0.340935 766.565 -0.982653C766.662 -1.62437 766.22 -2.22283 765.578 -2.31934C764.936 -2.41585 764.338 -1.97386 764.241 -1.33214C764.145 -0.690425 764.587 -0.0919726 765.228 0.00453626Z" fill="white"/>
<path opacity="0.11" d="M882.992 92.9501C883.634 93.0466 884.232 92.6046 884.329 91.9629C884.425 91.3212 883.983 90.7227 883.341 90.6262C882.7 90.5297 882.101 90.9717 882.005 91.6134C881.908 92.2551 882.35 92.8536 882.992 92.9501Z" fill="white"/>
<path d="M885.803 99.9038C886.284 99.9762 886.733 99.6448 886.805 99.1636C886.877 98.6825 886.546 98.2338 886.065 98.1614C885.584 98.0891 885.135 98.4204 885.063 98.9016C884.99 99.3827 885.322 99.8315 885.803 99.9038Z" fill="white"/>
<path d="M906.804 90.5939C907.285 90.6662 907.733 90.3348 907.806 89.8537C907.878 89.3725 907.547 88.9238 907.066 88.8515C906.584 88.7791 906.136 89.1105 906.063 89.5917C905.991 90.0728 906.322 90.5215 906.804 90.5939Z" fill="white"/>
<path d="M857.614 82.005C858.095 82.0774 858.544 81.746 858.616 81.2648C858.689 80.7837 858.357 80.335 857.876 80.2626C857.395 80.1902 856.946 80.5216 856.874 81.0028C856.802 81.4839 857.133 81.9326 857.614 82.005Z" fill="white"/>
<path opacity="0.11" d="M826.769 91.6183C827.411 91.7148 828.009 91.2728 828.106 90.6311C828.202 89.9894 827.76 89.3909 827.118 89.2944C826.477 89.1979 825.878 89.6399 825.782 90.2816C825.685 90.9233 826.127 91.5218 826.769 91.6183Z" fill="white"/>
<path d="M817.659 77.1841C817.98 77.2324 818.279 77.0116 818.327 76.691C818.375 76.3704 818.154 76.0714 817.834 76.0232C817.513 75.975 817.214 76.1958 817.166 76.5164C817.118 76.837 817.339 77.1359 817.659 77.1841Z" fill="white"/>
<path d="M877.838 115.334C878.159 115.382 878.457 115.161 878.506 114.84C878.554 114.52 878.333 114.221 878.013 114.173C877.692 114.124 877.393 114.345 877.345 114.666C877.296 114.986 877.517 115.285 877.838 115.334Z" fill="white"/>
<path d="M1004.44 134.378C1004.76 134.426 1005.06 134.205 1005.11 133.885C1005.16 133.564 1004.94 133.265 1004.62 133.217C1004.3 133.169 1004 133.39 1003.95 133.71C1003.9 134.031 1004.12 134.33 1004.44 134.378Z" fill="white"/>
<path d="M1072.46 112.535C1072.78 112.583 1073.08 112.363 1073.13 112.042C1073.18 111.721 1072.95 111.422 1072.63 111.374C1072.31 111.326 1072.01 111.547 1071.97 111.867C1071.92 112.188 1072.14 112.487 1072.46 112.535Z" fill="white"/>
<path d="M1088.74 158.337C1089.06 158.386 1089.36 158.165 1089.4 157.844C1089.45 157.524 1089.23 157.225 1088.91 157.176C1088.59 157.128 1088.29 157.349 1088.24 157.67C1088.19 157.99 1088.42 158.289 1088.74 158.337Z" fill="white"/>
<path d="M686.634 71.7303C686.954 71.7785 687.253 71.5577 687.301 71.2371C687.35 70.9165 687.129 70.6176 686.808 70.5694C686.488 70.5211 686.189 70.7419 686.14 71.0625C686.092 71.3831 686.313 71.6821 686.634 71.7303Z" fill="white"/>
<path opacity="0.11" d="M682.644 39.0624C682.964 39.1106 683.263 38.8898 683.311 38.5692C683.36 38.2486 683.139 37.9497 682.818 37.9014C682.498 37.8532 682.199 38.074 682.15 38.3946C682.102 38.7152 682.323 39.0142 682.644 39.0624Z" fill="white"/>
<path opacity="0.11" d="M655.665 48.6649C655.985 48.7131 656.284 48.4923 656.332 48.1717C656.381 47.8511 656.16 47.5521 655.839 47.5039C655.519 47.4557 655.22 47.6765 655.171 47.9971C655.123 48.3177 655.344 48.6167 655.665 48.6649Z" fill="white"/>
<path opacity="0.11" d="M669.587 86.3915C669.907 86.4397 670.206 86.2189 670.255 85.8983C670.303 85.5777 670.082 85.2788 669.761 85.2305C669.441 85.1823 669.142 85.4031 669.094 85.7237C669.045 86.0443 669.266 86.3433 669.587 86.3915Z" fill="white"/>
<path opacity="0.11" d="M811.294 83.9445C811.615 83.9927 811.914 83.7719 811.962 83.4513C812.01 83.1307 811.789 82.8317 811.469 82.7835C811.148 82.7353 810.849 82.9561 810.801 83.2767C810.753 83.5973 810.974 83.8963 811.294 83.9445Z" fill="white"/>
<path opacity="0.11" d="M873.532 136.066C873.853 136.114 874.152 135.893 874.2 135.573C874.248 135.252 874.028 134.953 873.707 134.905C873.386 134.857 873.088 135.077 873.039 135.398C872.991 135.719 873.212 136.018 873.532 136.066Z" fill="white"/>
<path opacity="0.11" d="M985.911 147.03C986.231 147.078 986.53 146.857 986.578 146.536C986.627 146.216 986.406 145.917 986.085 145.869C985.765 145.82 985.466 146.041 985.417 146.362C985.369 146.682 985.59 146.981 985.911 147.03Z" fill="white"/>
<path opacity="0.3" d="M715.535 61.2307C715.855 61.2789 716.154 61.0581 716.202 60.7376C716.251 60.417 716.03 60.118 715.709 60.0698C715.389 60.0216 715.09 60.2424 715.041 60.563C714.993 60.8835 715.214 61.1825 715.535 61.2307Z" fill="white"/>
<path d="M853.82 49.9574C854.141 50.0056 854.44 49.7848 854.488 49.4642C854.536 49.1436 854.315 48.8447 853.995 48.7965C853.674 48.7483 853.375 48.969 853.327 49.2896C853.279 49.6102 853.499 49.9092 853.82 49.9574Z" fill="white"/>
<path d="M943.429 62.2482C943.75 62.2965 944.049 62.0757 944.097 61.7551C944.145 61.4345 943.924 61.1355 943.604 61.0873C943.283 61.0391 942.984 61.2599 942.936 61.5805C942.888 61.9011 943.108 62.2 943.429 62.2482Z" fill="white"/>
<path d="M806.294 97.4483C806.614 97.4965 806.913 97.2757 806.961 96.9551C807.01 96.6346 806.789 96.3356 806.468 96.2874C806.148 96.2392 805.849 96.46 805.801 96.7806C805.752 97.1011 805.973 97.4001 806.294 97.4483Z" fill="white"/>
<path opacity="0.3" d="M765.642 91.3348C765.962 91.383 766.261 91.1622 766.309 90.8416C766.358 90.521 766.137 90.2221 765.816 90.1738C765.496 90.1256 765.197 90.3464 765.148 90.667C765.1 90.9876 765.321 91.2866 765.642 91.3348Z" fill="white"/>
<path opacity="0.11" d="M723.442 48.1685C723.763 48.2167 724.062 47.9959 724.11 47.6753C724.158 47.3547 723.937 47.0558 723.617 47.0076C723.296 46.9594 722.997 47.1801 722.949 47.5007C722.901 47.8213 723.122 48.1203 723.442 48.1685Z" fill="white"/>
<path opacity="0.3" d="M862.183 65.4714C862.503 65.5197 862.802 65.2989 862.851 64.9783C862.899 64.6577 862.678 64.3587 862.357 64.3105C862.037 64.2623 861.738 64.4831 861.69 64.8037C861.641 65.1243 861.862 65.4232 862.183 65.4714Z" fill="white"/>
<path opacity="0.3" d="M814.511 109.97C814.832 110.018 815.131 109.797 815.179 109.477C815.227 109.156 815.007 108.857 814.686 108.809C814.365 108.761 814.067 108.981 814.018 109.302C813.97 109.623 814.191 109.922 814.511 109.97Z" fill="white"/>
<path opacity="0.3" d="M743.366 105.206C743.686 105.254 743.985 105.034 744.033 104.713C744.082 104.392 743.861 104.093 743.54 104.045C743.22 103.997 742.921 104.218 742.873 104.538C742.824 104.859 743.045 105.158 743.366 105.206Z" fill="white"/>
<path opacity="0.3" d="M732.377 63.7671C732.697 63.8153 732.996 63.5945 733.045 63.2739C733.093 62.9533 732.872 62.6543 732.551 62.6061C732.231 62.5579 731.932 62.7787 731.884 63.0993C731.835 63.4199 732.056 63.7188 732.377 63.7671Z" fill="white"/>
<path opacity="0.3" d="M1093.86 116.348C1094.18 116.397 1094.48 116.176 1094.52 115.855C1094.57 115.535 1094.35 115.236 1094.03 115.187C1093.71 115.139 1093.41 115.36 1093.36 115.681C1093.32 116.001 1093.54 116.3 1093.86 116.348Z" fill="white"/>
<path opacity="0.11" d="M1003.94 78.4745C1004.26 78.5227 1004.56 78.3019 1004.61 77.9813C1004.66 77.6607 1004.44 77.3618 1004.11 77.3136C1003.79 77.2653 1003.5 77.4861 1003.45 77.8067C1003.4 78.1273 1003.62 78.4263 1003.94 78.4745Z" fill="white"/>
<path opacity="0.11" d="M1074.42 138.96C1074.74 139.008 1075.04 138.787 1075.09 138.467C1075.14 138.146 1074.92 137.847 1074.6 137.799C1074.28 137.751 1073.98 137.972 1073.93 138.292C1073.88 138.613 1074.1 138.912 1074.42 138.96Z" fill="white"/>
<path opacity="0.3" d="M926.707 122.091C927.349 122.188 927.948 121.746 928.044 121.104C928.141 120.462 927.699 119.864 927.057 119.767C926.415 119.671 925.817 120.113 925.72 120.754C925.624 121.396 926.066 121.995 926.707 122.091Z" fill="white"/>
<path opacity="0.11" d="M963.593 109.824C964.235 109.92 964.834 109.478 964.93 108.836C965.027 108.195 964.585 107.596 963.943 107.5C963.301 107.403 962.703 107.845 962.606 108.487C962.51 109.129 962.952 109.727 963.593 109.824Z" fill="white"/>
<path d="M966.362 89.4553C966.843 89.5277 967.292 89.1963 967.364 88.7151C967.437 88.234 967.105 87.7853 966.624 87.7129C966.143 87.6406 965.694 87.972 965.622 88.4531C965.55 88.9343 965.881 89.383 966.362 89.4553Z" fill="white"/>
<path d="M917.121 144.408C917.603 144.48 918.051 144.149 918.124 143.667C918.196 143.186 917.865 142.738 917.384 142.665C916.902 142.593 916.454 142.924 916.381 143.405C916.309 143.887 916.64 144.335 917.121 144.408Z" fill="white"/>
<path d="M1108.18 185.018C1108.66 185.091 1109.11 184.759 1109.18 184.278C1109.25 183.797 1108.92 183.348 1108.44 183.276C1107.96 183.204 1107.51 183.535 1107.44 184.016C1107.37 184.497 1107.7 184.946 1108.18 185.018Z" fill="white"/>
<path d="M732.76 118.458C733.241 118.531 733.69 118.199 733.762 117.718C733.834 117.237 733.503 116.788 733.022 116.716C732.541 116.644 732.092 116.975 732.019 117.456C731.947 117.937 732.279 118.386 732.76 118.458Z" fill="white"/>
<path d="M657.535 93.4882C658.016 93.5605 658.465 93.2291 658.537 92.748C658.609 92.2668 658.278 91.8181 657.797 91.7458C657.316 91.6734 656.867 92.0048 656.795 92.4859C656.722 92.9671 657.054 93.4158 657.535 93.4882Z" fill="white"/>
<path d="M651.154 68.773C651.636 68.8454 652.084 68.514 652.157 68.0328C652.229 67.5517 651.898 67.103 651.417 67.0306C650.935 66.9583 650.487 67.2896 650.414 67.7708C650.342 68.2519 650.673 68.7007 651.154 68.773Z" fill="white"/>
<path d="M936.741 96.8794C937.223 96.9518 937.671 96.6204 937.744 96.1392C937.816 95.6581 937.485 95.2094 937.004 95.137C936.522 95.0646 936.074 95.396 936.001 95.8772C935.929 96.3583 936.26 96.8071 936.741 96.8794Z" fill="white"/>
<path d="M829.228 124.655C829.709 124.727 830.157 124.396 830.23 123.915C830.302 123.433 829.971 122.985 829.49 122.912C829.008 122.84 828.56 123.171 828.487 123.653C828.415 124.134 828.746 124.582 829.228 124.655Z" fill="white"/>
<path d="M971.819 171.638C972.3 171.711 972.749 171.379 972.821 170.898C972.894 170.417 972.562 169.968 972.081 169.896C971.6 169.823 971.151 170.155 971.079 170.636C971.007 171.117 971.338 171.566 971.819 171.638Z" fill="white"/>
<path d="M1131.65 155.29C1132.13 155.363 1132.58 155.031 1132.66 154.55C1132.73 154.069 1132.4 153.62 1131.92 153.548C1131.43 153.476 1130.99 153.807 1130.91 154.288C1130.84 154.769 1131.17 155.218 1131.65 155.29Z" fill="white"/>
<path d="M1150.4 125.448C1150.88 125.52 1151.33 125.188 1151.4 124.707C1151.47 124.226 1151.14 123.777 1150.66 123.705C1150.18 123.633 1149.73 123.964 1149.66 124.445C1149.58 124.926 1149.92 125.375 1150.4 125.448Z" fill="white"/>
<path opacity="0.3" d="M1014.18 97.2371C1014.82 97.3337 1015.42 96.8917 1015.52 96.2499C1015.62 95.6082 1015.17 95.0098 1014.53 94.9133C1013.89 94.8168 1013.29 95.2587 1013.2 95.9005C1013.1 96.5422 1013.54 97.1406 1014.18 97.2371Z" fill="white"/>
<path d="M1020.39 56.008C1021.03 56.1045 1021.63 55.6625 1021.72 55.0208C1021.82 54.3791 1021.38 53.7807 1020.73 53.6841C1020.09 53.5876 1019.49 54.0296 1019.4 54.6713C1019.3 55.313 1019.74 55.9115 1020.39 56.008Z" fill="white"/>
<path d="M1042.17 114.517C1042.66 114.589 1043.1 114.258 1043.18 113.777C1043.25 113.296 1042.92 112.847 1042.44 112.774C1041.96 112.702 1041.51 113.033 1041.43 113.515C1041.36 113.996 1041.69 114.444 1042.17 114.517Z" fill="white"/>
<path opacity="0.3" d="M1073.75 96.104C1074.39 96.2005 1074.99 95.7585 1075.08 95.1168C1075.18 94.4751 1074.74 93.8766 1074.1 93.7801C1073.46 93.6836 1072.86 94.1256 1072.76 94.7673C1072.66 95.409 1073.11 96.0074 1073.75 96.104Z" fill="white"/>
<path opacity="0.3" d="M1125.04 145.984C1125.68 146.08 1126.28 145.638 1126.38 144.997C1126.47 144.355 1126.03 143.756 1125.39 143.66C1124.75 143.563 1124.15 144.005 1124.05 144.647C1123.96 145.289 1124.4 145.887 1125.04 145.984Z" fill="white"/>
<path opacity="0.3" d="M1056.92 136.925C1057.56 137.021 1058.16 136.579 1058.25 135.937C1058.35 135.296 1057.91 134.697 1057.27 134.601C1056.63 134.504 1056.03 134.946 1055.93 135.588C1055.83 136.23 1056.28 136.828 1056.92 136.925Z" fill="white"/>
<path opacity="0.3" d="M722.086 96.6624C722.728 96.7589 723.327 96.3169 723.423 95.6752C723.52 95.0335 723.078 94.435 722.436 94.3385C721.794 94.242 721.196 94.684 721.099 95.3257C721.003 95.9674 721.445 96.5659 722.086 96.6624Z" fill="white"/>
<path opacity="0.3" d="M679.844 57.6449C680.486 57.7414 681.084 57.2994 681.181 56.6577C681.277 56.016 680.835 55.4176 680.194 55.321C679.552 55.2245 678.954 55.6665 678.857 56.3082C678.76 56.9499 679.202 57.5484 679.844 57.6449Z" fill="white"/>
<path opacity="0.11" d="M1103.85 124.98C1104.49 125.077 1105.09 124.635 1105.19 123.993C1105.28 123.352 1104.84 122.753 1104.2 122.657C1103.56 122.56 1102.96 123.002 1102.86 123.644C1102.77 124.285 1103.21 124.884 1103.85 124.98Z" fill="white"/>
<path opacity="0.3" d="M765.861 50.3903C766.503 50.4868 767.101 50.0448 767.198 49.4031C767.294 48.7614 766.852 48.1629 766.211 48.0664C765.569 47.9699 764.97 48.4119 764.874 49.0536C764.777 49.6953 765.219 50.2938 765.861 50.3903Z" fill="white"/>
<path opacity="0.11" d="M751.928 36.4171C752.57 36.5136 753.168 36.0716 753.265 35.4299C753.361 34.7882 752.919 34.1897 752.277 34.0932C751.636 33.9967 751.037 34.4387 750.941 35.0804C750.844 35.7221 751.286 36.3206 751.928 36.4171Z" fill="white"/>
<path opacity="0.3" d="M741.696 72.8875C742.337 72.984 742.936 72.542 743.032 71.9003C743.129 71.2586 742.687 70.6602 742.045 70.5637C741.403 70.4672 740.805 70.9091 740.708 71.5508C740.612 72.1926 741.054 72.791 741.696 72.8875Z" fill="white"/>
<path d="M778.075 77.7631C778.556 77.8355 779.005 77.5041 779.077 77.023C779.15 76.5418 778.818 76.0931 778.337 76.0207C777.856 75.9484 777.407 76.2798 777.335 76.7609C777.262 77.2421 777.594 77.6908 778.075 77.7631Z" fill="white"/>
</g>
</g>
</g>
<defs>
<radialGradient id="paint0_radial_2_5" cx="0" cy="0" r="1" gradientUnits="userSpaceOnUse" gradientTransform="translate(639.5 833.5) rotate(90) scale(692.5)">
<stop stop-color="#FFA200"/>
<stop offset="1" stop-color="#140A06" stop-opacity="0"/>
</radialGradient>
<linearGradient id="paint1_linear_2_5" x1="20.0656" y1="1120.08" x2="1265.43" y2="1132.26" gradientUnits="userSpaceOnUse">
<stop stop-color="#FFD600"/>
<stop offset="0.276042" stop-color="#FFD600" stop-opacity="0.1"/>
<stop offset="0.703125" stop-color="#FFD600" stop-opacity="0.1"/>
<stop offset="1" stop-color="#FFD600"/>
</linearGradient>
<radialGradient id="paint2_radial_2_5" cx="0" cy="0" r="1" gradientUnits="userSpaceOnUse" gradientTransform="translate(639.5 833.5) rotate(90) scale(569.5)">
<stop stop-color="#FFA200"/>
<stop offset="1" stop-color="#140A06" stop-opacity="0"/>
</radialGradient>
<linearGradient id="paint3_linear_2_5" x1="130.088" y1="1069.18" x2="1154.25" y2="1079.19" gradientUnits="userSpaceOnUse">
<stop stop-color="#FFD600"/>
<stop offset="0.276042" stop-color="#FFD600" stop-opacity="0.1"/>
<stop offset="0.703125" stop-color="#FFD600" stop-opacity="0.1"/>
<stop offset="1" stop-color="#FFD600"/>
</linearGradient>
<radialGradient id="paint4_radial_2_5" cx="0" cy="0" r="1" gradientUnits="userSpaceOnUse" gradientTransform="translate(639.5 833.5) rotate(90) scale(426.5)">
<stop stop-color="#FFA200"/>
<stop offset="1" stop-color="#140A06" stop-opacity="0"/>
</radialGradient>
<linearGradient id="paint5_linear_2_5" x1="258" y1="1010" x2="1025" y2="1017.5" gradientUnits="userSpaceOnUse">
<stop stop-color="#FFD600"/>
<stop offset="0.276042" stop-color="#FFD600" stop-opacity="0.1"/>
<stop offset="0.703125" stop-color="#FFD600" stop-opacity="0.1"/>
<stop offset="1" stop-color="#FFD600"/>
</linearGradient>
<clipPath id="clip0_2_5">
<rect width="1280" height="832" fill="white"/>
</clipPath>
<clipPath id="clip1_2_5">
<rect width="872" height="731" fill="white" transform="translate(556.707 -459) rotate(41.5347)"/>
</clipPath>
</defs>
</svg>
