<svg xmlns="http://www.w3.org/2000/svg" viewBox="0 0 20 20" fill="currentColor">
  <path fill-rule="evenodd" clip-rule="evenodd" d="M20 9.61878V7.23788C20 6.8589 19.8495 6.49552 19.5815 6.22784C19.3138 5.95983 18.9504 5.80931 18.5714 5.80931H1.42857C0.892367 5.80931 0.398122 5.63218 0 5.33307V16.7616C0 17.1408 0.15051 17.5041 0.418531 17.7717C0.686228 18.0399 1.04959 18.1902 1.42857 18.1902H18.5714C18.9504 18.1902 19.3138 18.0399 19.5815 17.7717C19.8495 17.5041 20 17.1408 20 16.7616V14.3807H15.7143C14.9252 14.3807 14.2857 13.7412 14.2857 12.9522V11.0474C14.2857 10.2583 14.9252 9.61878 15.7143 9.61878H20Z" fill="currentColor" />
  <path fill-rule="evenodd" clip-rule="evenodd" d="M18.0951 4.85714V3.42857C18.0951 2.63951 17.4556 2 16.6665 2H1.42857C0.63951 2 0 2.63951 0 3.42857C0 4.21763 0.63951 4.85714 1.42857 4.85714H18.0951Z" fill="currentColor" />
  <path fill-rule="evenodd" clip-rule="evenodd" d="M20 10.5714V13.4286H15.7143C15.4514 13.4286 15.238 13.2152 15.238 12.9523V11.0475C15.238 10.7847 15.4514 10.5714 15.7143 10.5714H20ZM16.6666 12.4761H18.5714C18.8343 12.4761 19.0477 12.2627 19.0477 12C19.0477 11.7371 18.8343 11.5237 18.5714 11.5237H16.6666C16.4039 11.5237 16.1905 11.7371 16.1905 12C16.1905 12.2627 16.4039 12.4761 16.6666 12.4761Z" fill="currentColor" />
</svg>
