<svg viewBox="0 0 96 109" fill="none" xmlns="http://www.w3.org/2000/svg">
  <path d="M26.1879 46.6737C29.4636 46.6737 32.119 44.0183 32.119 40.7426C32.119 37.467 29.4636 34.8115 26.1879 34.8115C22.9123 34.8115 20.2568 37.467 20.2568 40.7426C20.2568 44.0183 22.9123 46.6737 26.1879 46.6737Z" fill="white" />
  <path d="M48.0093 34.1881C51.2849 34.1881 53.9404 31.5327 53.9404 28.257C53.9404 24.9814 51.2849 22.3259 48.0093 22.3259C44.7336 22.3259 42.0782 24.9814 42.0782 28.257C42.0782 31.5327 44.7336 34.1881 48.0093 34.1881Z" fill="white" />
  <path d="M69.9791 46.744C73.2548 46.744 75.9102 44.0886 75.9102 40.8129C75.9102 37.5373 73.2548 34.8818 69.9791 34.8818C66.7035 34.8818 64.048 37.5373 64.048 40.8129C64.048 44.0886 66.7035 46.744 69.9791 46.744Z" fill="white" />
  <path d="M69.9791 72.1132C73.2548 72.1132 75.9102 69.4577 75.9102 66.1821C75.9102 62.9064 73.2548 60.251 69.9791 60.251C66.7035 60.251 64.048 62.9064 64.048 66.1821C64.048 69.4577 66.7035 72.1132 69.9791 72.1132Z" fill="white" />
  <path d="M47.9787 84.776C51.2544 84.776 53.9098 82.1206 53.9098 78.8449C53.9098 75.5693 51.2544 72.9138 47.9787 72.9138C44.7031 72.9138 42.0476 75.5693 42.0476 78.8449C42.0476 82.1206 44.7031 84.776 47.9787 84.776Z" fill="white" />
  <path d="M26.0669 72.1952C29.3426 72.1952 31.998 69.5398 31.998 66.2641C31.998 62.9885 29.3426 60.333 26.0669 60.333C22.7912 60.333 20.1358 62.9885 20.1358 66.2641C20.1358 69.5398 22.7912 72.1952 26.0669 72.1952Z" fill="white" />
  <path d="M5.2752 35.2794C8.18861 35.2794 10.5504 32.9176 10.5504 30.0042C10.5504 27.0908 8.18861 24.729 5.2752 24.729C2.36179 24.729 0 27.0908 0 30.0042C0 32.9176 2.36179 35.2794 5.2752 35.2794Z" fill="white" />
  <path d="M90.541 35.2794C93.4544 35.2794 95.8162 32.9176 95.8162 30.0042C95.8162 27.0908 93.4544 24.729 90.541 24.729C87.6276 24.729 85.2658 27.0908 85.2658 30.0042C85.2658 32.9176 87.6276 35.2794 90.541 35.2794Z" fill="white" />
  <path d="M90.541 84.3712C93.4544 84.3712 95.8162 82.0094 95.8162 79.096C95.8162 76.1826 93.4544 73.8208 90.541 73.8208C87.6276 73.8208 85.2658 76.1826 85.2658 79.096C85.2658 82.0094 87.6276 84.3712 90.541 84.3712Z" fill="white" />
  <path d="M5.38623 84.2328C8.29964 84.2328 10.6614 81.871 10.6614 78.9576C10.6614 76.0442 8.29964 73.6824 5.38623 73.6824C2.47281 73.6824 0.111023 76.0442 0.111023 78.9576C0.111023 81.871 2.47281 84.2328 5.38623 84.2328Z" fill="white" />
  <path d="M48.0094 10.5504C50.9228 10.5504 53.2846 8.18861 53.2846 5.2752C53.2846 2.36179 50.9228 0 48.0094 0C45.096 0 42.7342 2.36179 42.7342 5.2752C42.7342 8.18861 45.096 10.5504 48.0094 10.5504Z" fill="white" />
  <path d="M48.0094 108.806C50.9228 108.806 53.2846 106.444 53.2846 103.53C53.2846 100.617 50.9228 98.2551 48.0094 98.2551C45.096 98.2551 42.7342 100.617 42.7342 103.53C42.7342 106.444 45.096 108.806 48.0094 108.806Z" fill="white" />
  <path d="M84.6067 56.5678C86.4561 56.5678 87.9553 55.0686 87.9553 53.2192C87.9553 51.3698 86.4561 49.8706 84.6067 49.8706C82.7573 49.8706 81.2581 51.3698 81.2581 53.2192C81.2581 55.0686 82.7573 56.5678 84.6067 56.5678Z" fill="white" />
  <path d="M67.2183 88.1044C69.0677 88.1044 70.5669 86.6052 70.5669 84.7558C70.5669 82.9064 69.0677 81.4072 67.2183 81.4072C65.3689 81.4072 63.8697 82.9064 63.8697 84.7558C63.8697 86.6052 65.3689 88.1044 67.2183 88.1044Z" fill="white" />
  <path d="M30.0249 87.9741C31.8743 87.9741 33.3735 86.4748 33.3735 84.6255C33.3735 82.7761 31.8743 81.2769 30.0249 81.2769C28.1756 81.2769 26.6763 82.7761 26.6763 84.6255C26.6763 86.4748 28.1756 87.9741 30.0249 87.9741Z" fill="white" />
  <path d="M10.8974 56.352C12.7468 56.352 14.246 54.8528 14.246 53.0034C14.246 51.154 12.7468 49.6548 10.8974 49.6548C9.04805 49.6548 7.54883 51.154 7.54883 53.0034C7.54883 54.8528 9.04805 56.352 10.8974 56.352Z" fill="white" />
  <path d="M30.1021 24.7917C31.9515 24.7917 33.4507 23.2925 33.4507 21.4431C33.4507 19.5937 31.9515 18.0945 30.1021 18.0945C28.2528 18.0945 26.7535 19.5937 26.7535 21.4431C26.7535 23.2925 28.2528 24.7917 30.1021 24.7917Z" fill="white" />
  <path d="M67.1355 24.9921C68.9849 24.9921 70.4841 23.4929 70.4841 21.6435C70.4841 19.7941 68.9849 18.2949 67.1355 18.2949C65.2861 18.2949 63.7869 19.7941 63.7869 21.6435C63.7869 23.4929 65.2861 24.9921 67.1355 24.9921Z" fill="white" />
  <path d="M48.1373 73.6316H48.0087V73.0301H48.1367C53.3036 73.0335 58.2603 70.9842 61.9162 67.333C65.5722 63.6818 67.6279 58.7278 67.6313 53.5609C67.6346 48.394 65.5853 43.4373 61.9341 39.7814C58.2829 36.1255 53.3289 34.0697 48.162 34.0663L48.1632 33.4648C53.4897 33.4683 58.5966 35.5875 62.3605 39.3563C66.1245 43.1251 68.2371 48.2347 68.2337 53.5612C68.2302 58.8876 66.111 63.9946 62.3422 67.7585C58.5734 71.5224 53.4638 73.6351 48.1373 73.6316Z" fill="white" />
  <path d="M69.872 35.5955C66.4485 35.5347 63.093 34.6293 60.1036 32.9596C57.1142 31.29 54.5836 28.9078 52.7364 26.0247L53.2346 25.687C55.0306 28.4907 57.4912 30.8073 60.398 32.431C63.3048 34.0548 66.5677 34.9354 69.8967 34.9946L69.872 35.5955Z" fill="white" />
  <path d="M53.2334 81.3517L52.7329 81.0181C56.8842 74.8044 62.0071 71.8281 69.3429 71.3691L69.3805 71.9691C62.2503 72.416 57.2701 75.3097 53.2334 81.3517Z" fill="white" />
  <path d="M51.8573 101.055C48.7716 95.0677 49.0764 87.611 52.6738 81.1089L53.2001 81.4002C49.7001 87.7261 49.3983 94.9708 52.3918 100.779L51.8573 101.055Z" fill="white" />
  <path d="M44.0044 101.35L43.4873 101.042C46.593 95.8236 47.7973 88.0826 43.4856 82.5497L43.9602 82.1797C48.4465 87.9367 47.2153 95.9561 44.0044 101.35Z" fill="white" />
  <path d="M74.5097 63.5855C70.5059 57.1327 71.5938 48.7849 74.2982 43.7595L74.8282 44.0444C72.203 48.9223 71.1433 57.0187 75.0209 63.2683L74.5097 63.5855Z" fill="white" />
  <path d="M43.9937 82.5767L52.1365 82.6308C52.1365 82.6308 47.3429 91.41 51.8665 100.426L44.155 100.372C44.155 100.372 50.3582 90.9602 43.9937 82.5767Z" fill="white" />
  <path d="M49.2155 73.7018L53.6964 80.4393C53.6964 80.4393 57.3988 72.7602 68.3231 71.7547L73.7388 61.9635C73.7388 61.9635 70.3388 56.1449 73.6726 44.4643C75.5673 37.8265 68.7233 35.2218 68.7233 35.2218C65.7998 35.1771 62.9288 34.4372 60.348 33.063C57.7671 31.6889 55.5504 29.7201 53.8812 27.3195C52.8337 25.7816 49.9292 33.6775 49.9292 33.6775C53.1795 33.921 56.3178 34.9711 59.0601 36.7328C61.8024 38.4945 64.0621 40.9121 65.6348 43.767C70.8319 53.322 65.2541 63.9936 65.2541 63.9936C65.2541 63.9936 61.0873 71.86 49.2155 73.7018Z" fill="white" />
</svg>
