<svg xmlns="http://www.w3.org/2000/svg" viewBox="0 0 1041 172" fill="none">
  <path fill-rule="evenodd" clip-rule="evenodd" d="M83.9292 40.2948C82.3622 37.3201 79.2469 35.2929 75.6594 35.2929C70.4972 35.2929 66.3124 39.4906 66.3124 44.6688C66.3124 49.8469 70.4972 54.0447 75.6594 54.0447C75.7991 54.0447 75.938 54.0416 76.0762 54.0355C114.884 54.2329 113.413 115.262 75.6112 115.262C70.449 115.262 66.2642 119.46 66.2642 124.638C66.2642 127.376 67.4341 129.84 69.2999 131.554C74.7999 139.663 73.4459 150.357 69.3872 158.188C68.116 159.652 67.3462 161.567 67.3462 163.661C67.3462 168.266 71.0683 172 75.6596 172C80.2509 172 83.973 168.266 83.973 163.661C83.973 161.677 83.2823 159.855 82.1291 158.423C78.1523 149.969 78.442 139.745 82.8841 130.528C83.5205 129.738 84.0317 128.843 84.3874 127.872C90.5334 119 99.5551 113.996 110.282 113.996C115.445 113.996 119.629 109.799 119.629 104.621C119.629 102.36 118.832 100.287 117.504 98.6677C114.637 93.6433 113.527 87.4144 113.962 81.6244C114.005 81.1185 114.056 80.6009 114.117 80.0714C114.518 76.8649 115.403 73.8442 116.733 71.3022C117.763 69.3339 119.629 67.1862 119.629 64.5172C119.629 59.339 115.445 55.1413 110.282 55.1413L110.214 55.1415C104.968 55.0479 99.7641 53.8338 95.1833 51.267C90.6213 48.7108 86.7564 44.7052 83.9292 40.2948ZM115.767 97.0276C115.744 96.974 115.721 96.9181 115.697 96.8598C115.721 96.9165 115.746 96.9732 115.77 97.0299L115.767 97.0276Z" fill="#F97316" />
  <path d="M50.4266 104.75C50.4266 109.929 46.2418 114.126 41.0796 114.126C35.9174 114.126 31.7326 109.929 31.7326 104.75C31.7326 99.5723 35.9174 95.3745 41.0796 95.3745C46.2418 95.3745 50.4266 99.5723 50.4266 104.75Z" fill="#F97316" />
  <path d="M22.4508 83.7879C22.4508 86.7114 20.0881 89.0813 17.1736 89.0813C14.2591 89.0813 11.8964 86.7114 11.8964 83.7879C11.8964 80.8644 14.2591 78.4944 17.1736 78.4944C20.0881 78.4944 22.4508 80.8644 22.4508 83.7879Z" fill="#F97316" />
  <path d="M50.6175 64.406C50.6175 69.5842 46.4326 73.7819 41.2704 73.7819C36.1082 73.7819 31.9234 69.5842 31.9234 64.406C31.9234 59.2279 36.1082 55.0301 41.2704 55.0301C46.4326 55.0301 50.6175 59.2279 50.6175 64.406Z" fill="#F97316" />
  <path d="M47.4388 39.1907C50.3533 39.1907 52.7159 36.8208 52.7159 33.8973C52.7159 30.9738 50.3533 28.6038 47.4388 28.6038C44.5243 28.6038 42.1616 30.9738 42.1616 33.8973C42.1616 36.8208 44.5243 39.1907 47.4388 39.1907Z" fill="#F97316" />
  <path d="M8.31336 55.7698C12.9047 55.7698 16.6267 52.0362 16.6267 47.4307C16.6267 42.8252 12.9047 39.0917 8.31336 39.0917C3.72202 39.0917 0 42.8252 0 47.4307C0 52.0362 3.72202 55.7698 8.31336 55.7698Z" fill="#F97316" />
  <path d="M16.8018 124.816C16.8018 129.422 13.0798 133.155 8.48842 133.155C3.89708 133.155 0.175061 129.422 0.175061 124.816C0.175061 120.211 3.89708 116.477 8.48842 116.477C13.0798 116.477 16.8018 120.211 16.8018 124.816Z" fill="#F97316" />
  <path d="M47.3172 139.07C50.2317 139.07 52.5943 136.7 52.5943 133.776C52.5943 130.853 50.2317 128.483 47.3172 128.483C44.4027 128.483 42.04 130.853 42.04 133.776C42.04 136.7 44.4027 139.07 47.3172 139.07Z" fill="#F97316" />
  <path d="M111.209 133.982C111.209 136.905 108.846 139.275 105.931 139.275C103.017 139.275 100.654 136.905 100.654 133.982C100.654 131.058 103.017 128.688 105.931 128.688C108.846 128.688 111.209 131.058 111.209 133.982Z" fill="#F97316" />
  <path d="M142.687 133.374C147.278 133.374 151 129.641 151 125.035C151 120.43 147.278 116.696 142.687 116.696C138.095 116.696 134.373 120.43 134.373 125.035C134.373 129.641 138.095 133.374 142.687 133.374Z" fill="#F97316" />
  <path d="M133.334 89.4225C136.249 89.4225 138.612 87.0525 138.612 84.129C138.612 81.2055 136.249 78.8355 133.334 78.8355C130.42 78.8355 128.057 81.2055 128.057 84.129C128.057 87.0525 130.42 89.4225 133.334 89.4225Z" fill="#F97316" />
  <path d="M151 47.4307C151 52.0362 147.278 55.7698 142.687 55.7698C138.095 55.7698 134.373 52.0362 134.373 47.4307C134.373 42.8252 138.095 39.0917 142.687 39.0917C147.278 39.0917 151 42.8252 151 47.4307Z" fill="#F97316" />
  <path d="M111.078 34.2137C111.078 37.1372 108.715 39.5072 105.801 39.5072C102.886 39.5072 100.524 37.1372 100.524 34.2137C100.524 31.2902 102.886 28.9203 105.801 28.9203C108.715 28.9203 111.078 31.2902 111.078 34.2137Z" fill="#F97316" />
  <path d="M83.9728 8.33905C83.9728 12.9446 80.2508 16.6781 75.6595 16.6781C71.0681 16.6781 67.3461 12.9446 67.3461 8.33905C67.3461 3.73352 71.0681 0 75.6595 0C80.2508 0 83.9728 3.73352 83.9728 8.33905Z" fill="#F97316" />
  <path d="M268.437 127.613V86.6016C268.437 82.7102 268.083 78.9704 267.374 75.3823C266.717 71.7941 265.528 68.5849 263.808 65.7548C262.138 62.8742 259.861 60.6 256.977 58.9323C254.144 57.2645 250.552 56.4306 246.201 56.4306C242.811 56.4306 239.724 57.0118 236.942 58.1742C234.21 59.286 231.857 61.0043 229.884 63.329C227.911 65.6538 226.367 68.5849 225.254 72.1226C224.192 75.6097 223.661 79.7285 223.661 84.479L214.781 81.75C214.781 73.8156 216.198 67.0183 219.031 61.3581C221.915 55.6473 225.937 51.2758 231.098 48.2436C236.309 45.1608 242.431 43.6194 249.464 43.6194C254.776 43.6194 259.305 44.4532 263.049 46.121C266.793 47.7887 269.904 50.0124 272.383 52.7919C274.862 55.521 276.81 58.6038 278.227 62.0403C279.644 65.4263 280.63 68.8882 281.187 72.4258C281.794 75.9129 282.098 79.2231 282.098 82.3565V127.613H268.437ZM210 127.613V45.7419H222.143V67.65H223.661V127.613H210Z" fill="currentColor" />
  <path d="M336.605 129.887C328.56 129.887 321.527 128.118 315.507 124.581C309.536 120.992 304.882 116.015 301.543 109.647C298.203 103.229 296.534 95.7489 296.534 87.2081C296.534 78.2629 298.178 70.5306 301.467 64.0113C304.755 57.4414 309.334 52.3876 315.203 48.85C321.123 45.2618 328.054 43.4677 335.998 43.4677C344.244 43.4677 351.252 45.3629 357.02 49.1532C362.838 52.9436 367.189 58.3511 370.073 65.3758C373.008 72.4005 374.272 80.7645 373.868 90.4677H360.207V85.6161C360.055 75.5591 358.006 68.0543 354.06 63.1016C350.113 58.0984 344.245 55.5968 336.453 55.5968C328.105 55.5968 321.755 58.2753 317.404 63.6323C313.053 68.9893 310.877 76.671 310.877 86.6774C310.877 96.3301 313.053 103.81 317.404 109.116C321.755 114.423 327.953 117.076 335.998 117.076C341.411 117.076 346.117 115.838 350.113 113.361C354.11 110.885 357.247 107.322 359.524 102.673L372.502 107.145C369.314 114.372 364.508 119.982 358.082 123.974C351.707 127.916 344.548 129.887 336.605 129.887ZM306.324 90.4677V79.6274H366.886V90.4677H306.324Z" fill="currentColor" />
  <path d="M421.88 129.735C416.618 129.735 412.09 128.902 408.296 127.234C404.551 125.566 401.44 123.342 398.961 120.563C396.482 117.783 394.534 114.701 393.117 111.315C391.7 107.928 390.689 104.467 390.081 100.929C389.525 97.3914 389.247 94.0812 389.247 90.9984V45.7419H402.907V86.7532C402.907 90.5941 403.261 94.3086 403.97 97.8968C404.678 101.485 405.867 104.719 407.537 107.6C409.257 110.481 411.534 112.755 414.367 114.423C417.251 116.09 420.843 116.924 425.144 116.924C428.533 116.924 431.62 116.343 434.402 115.181C437.185 114.018 439.563 112.3 441.536 110.026C443.509 107.701 445.027 104.77 446.09 101.232C447.152 97.6946 447.684 93.5758 447.684 88.8758L456.563 91.6048C456.563 99.4887 455.121 106.286 452.237 111.997C449.404 117.708 445.381 122.104 440.17 125.187C435.01 128.219 428.913 129.735 421.88 129.735ZM449.201 127.613V105.705H447.684V45.7419H461.268V127.613H449.201Z" fill="currentColor" />
  <path d="M528.28 127.613C523.423 128.573 518.616 128.952 513.86 128.75C509.155 128.598 504.956 127.663 501.262 125.945C497.569 124.176 494.761 121.447 492.838 117.758C491.219 114.524 490.334 111.264 490.182 107.979C490.081 104.644 490.03 100.879 490.03 96.6839V23H503.539V96.0774C503.539 99.4129 503.564 102.268 503.615 104.644C503.716 107.019 504.247 109.066 505.209 110.784C507.03 114.018 509.914 115.913 513.86 116.469C517.857 117.025 522.664 116.874 528.28 116.015V127.613ZM473.41 56.8855V45.7419H528.28V56.8855H473.41Z" fill="currentColor" />
  <path d="M544.92 127.613V45.7419H556.987V65.5274L555.014 62.95C555.975 60.4231 557.215 58.0984 558.733 55.9758C560.301 53.8532 562.047 52.1097 563.969 50.7452C566.094 49.0269 568.497 47.7129 571.179 46.8032C573.861 45.8935 576.593 45.3629 579.375 45.2113C582.158 45.0091 584.764 45.186 587.192 45.7419V58.4016C584.359 57.6436 581.247 57.4414 577.858 57.7952C574.468 58.1489 571.331 59.3871 568.447 61.5097C565.816 63.3796 563.767 65.6538 562.3 68.3323C560.883 71.0108 559.896 73.9167 559.34 77.05C558.783 80.1328 558.505 83.2914 558.505 86.5258V127.613H544.92Z" fill="currentColor" />
  <path d="M634.971 129.887C626.825 129.887 619.793 128.042 613.873 124.353C608.004 120.664 603.476 115.56 600.288 109.04C597.101 102.521 595.507 95.0414 595.507 86.6016C595.507 78.0102 597.126 70.4801 600.364 64.0113C603.602 57.5425 608.181 52.514 614.101 48.9258C620.02 45.2871 626.977 43.4677 634.971 43.4677C643.167 43.4677 650.225 45.3124 656.145 49.0016C662.065 52.6403 666.593 57.7194 669.73 64.2387C672.917 70.7075 674.511 78.1618 674.511 86.6016C674.511 95.1425 672.917 102.673 669.73 109.192C666.542 115.661 661.989 120.74 656.069 124.429C650.15 128.068 643.117 129.887 634.971 129.887ZM634.971 117.076C643.471 117.076 649.795 114.246 653.944 108.585C658.093 102.925 660.167 95.5973 660.167 86.6016C660.167 77.3532 658.068 70 653.868 64.5419C649.669 59.0333 643.37 56.279 634.971 56.279C629.254 56.279 624.549 57.5677 620.855 60.1452C617.162 62.7226 614.404 66.2855 612.583 70.8339C610.762 75.3823 609.851 80.6382 609.851 86.6016C609.851 95.7995 611.976 103.178 616.226 108.737C620.476 114.296 626.724 117.076 634.971 117.076Z" fill="currentColor" />
  <path d="M720.998 129.811C711.234 129.811 703.214 127.689 696.941 123.444C690.717 119.148 686.898 113.159 685.481 105.477L699.293 103.279C700.406 107.726 702.961 111.264 706.958 113.892C710.955 116.469 715.914 117.758 721.833 117.758C727.449 117.758 731.851 116.596 735.038 114.271C738.226 111.946 739.82 108.788 739.82 104.795C739.82 102.47 739.288 100.601 738.226 99.1855C737.163 97.7199 734.963 96.3554 731.623 95.0919C728.335 93.8285 723.351 92.3124 716.673 90.5436C709.437 88.6231 703.746 86.6269 699.597 84.5548C695.448 82.4828 692.488 80.0823 690.717 77.3532C688.947 74.6242 688.061 71.314 688.061 67.4226C688.061 62.6215 689.377 58.4269 692.008 54.8387C694.638 51.2 698.307 48.3952 703.012 46.4242C707.768 44.4532 713.283 43.4677 719.556 43.4677C725.78 43.4677 731.345 44.4532 736.253 46.4242C741.16 48.3952 745.107 51.2 748.092 54.8387C751.128 58.4269 752.924 62.6215 753.48 67.4226L739.668 69.9242C739.01 65.5274 736.885 62.0656 733.293 59.5387C729.751 57.0118 725.172 55.6726 719.556 55.521C714.244 55.3188 709.918 56.2538 706.579 58.3258C703.29 60.3979 701.646 63.2027 701.646 66.7403C701.646 68.7113 702.253 70.4043 703.467 71.8194C704.732 73.2344 707.034 74.5737 710.373 75.8371C713.763 77.1005 718.671 78.5409 725.097 80.1581C732.332 81.9774 738.023 83.9737 742.172 86.1468C746.372 88.2694 749.357 90.7962 751.128 93.7274C752.898 96.6081 753.784 100.171 753.784 104.416C753.784 112.3 750.875 118.516 745.056 123.065C739.238 127.562 731.219 129.811 720.998 129.811Z" fill="currentColor" />
  <path d="M785.012 127.613L759.968 45.6661L773.401 45.7419L791.691 105.629L810.133 45.7419H822.048L840.413 105.629L858.779 45.7419H872.136L847.092 127.613H835.86L816.052 65.3758L796.244 127.613H785.012Z" fill="currentColor" />
  <path d="M904.546 129.887C898.424 129.887 893.289 128.775 889.14 126.552C885.042 124.277 881.93 121.296 879.805 117.606C877.731 113.917 876.693 109.874 876.693 105.477C876.693 101.182 877.503 97.4672 879.122 94.3339C880.792 91.15 883.119 88.522 886.104 86.45C889.089 84.3274 892.656 82.6597 896.805 81.4468C900.701 80.3855 905.052 79.4758 909.858 78.7177C914.715 77.9091 919.623 77.1763 924.581 76.5194C929.54 75.8624 934.169 75.2306 938.47 74.6242L933.613 77.429C933.764 70.1516 932.297 64.7694 929.211 61.2823C926.175 57.7952 920.913 56.0516 913.425 56.0516C908.467 56.0516 904.116 57.1887 900.372 59.4629C896.678 61.6866 894.073 65.3253 892.555 70.379L879.729 66.5129C881.702 59.3366 885.522 53.7016 891.189 49.6081C896.855 45.5145 904.318 43.4677 913.577 43.4677C921.015 43.4677 927.389 44.807 932.702 47.4855C938.065 50.1134 941.91 54.1059 944.237 59.4629C945.401 61.9898 946.135 64.7441 946.438 67.7258C946.742 70.657 946.894 73.7398 946.894 76.9742V127.613H934.903V107.979L937.711 109.798C934.625 116.419 930.299 121.422 924.733 124.808C919.218 128.194 912.489 129.887 904.546 129.887ZM906.595 118.592C911.452 118.592 915.651 117.733 919.193 116.015C922.785 114.246 925.669 111.946 927.845 109.116C930.02 106.235 931.437 103.102 932.095 99.7161C932.854 97.1893 933.258 94.3844 933.309 91.3016C933.41 88.1683 933.461 85.7677 933.461 84.1L938.166 86.1468C933.764 86.7532 929.439 87.3344 925.189 87.8903C920.939 88.4462 916.916 89.0527 913.122 89.7097C909.327 90.3161 905.912 91.0489 902.876 91.9081C900.65 92.6156 898.55 93.5253 896.577 94.6371C894.655 95.7489 893.086 97.1893 891.872 98.9581C890.708 100.676 890.126 102.824 890.126 105.402C890.126 107.625 890.683 109.748 891.796 111.769C892.96 113.791 894.731 115.433 897.108 116.697C899.537 117.96 902.699 118.592 906.595 118.592Z" fill="currentColor" />
  <path d="M1004.27 129.887C996.578 129.887 990.102 127.992 984.84 124.202C979.578 120.361 975.581 115.181 972.849 108.661C970.167 102.091 968.827 94.7382 968.827 86.6016C968.827 78.364 970.167 70.9855 972.849 64.4661C975.581 57.9468 979.578 52.8172 984.84 49.0774C990.152 45.3376 996.654 43.4677 1004.34 43.4677C1011.93 43.4677 1018.46 45.3629 1023.92 49.1532C1029.44 52.893 1033.66 58.0226 1036.6 64.5419C1039.53 71.0613 1041 78.4145 1041 86.6016C1041 94.7887 1039.53 102.142 1036.6 108.661C1033.66 115.181 1029.44 120.361 1023.92 124.202C1018.46 127.992 1011.91 129.887 1004.27 129.887ZM966.55 164V45.7419H978.617V106.008H980.135V164H966.55ZM1002.6 117.531C1008.01 117.531 1012.49 116.166 1016.03 113.437C1019.57 110.708 1022.23 107.019 1024 102.369C1025.77 97.6694 1026.66 92.4134 1026.66 86.6016C1026.66 80.8403 1025.77 75.6349 1024 70.9855C1022.28 66.336 1019.6 62.6468 1015.96 59.9177C1012.36 57.1887 1007.78 55.8242 1002.22 55.8242C996.907 55.8242 992.505 57.1382 989.014 59.7661C985.523 62.3436 982.917 65.957 981.197 70.6065C979.477 75.2054 978.617 80.5371 978.617 86.6016C978.617 92.5651 979.451 97.8968 981.121 102.597C982.841 107.246 985.472 110.91 989.014 113.589C992.555 116.217 997.084 117.531 1002.6 117.531Z" fill="currentColor" />
</svg>
