<svg xmlns="http://www.w3.org/2000/svg" id="Layer_1" data-name="Layer 1" viewBox="0 0 522.0531 152.1239">
  <defs>
    <style>.cls-1{fill:#fff;}</style>
  </defs>
  <path class="cls-1" d="M169.5311,95.9158v-35.06h14.17q.5112,0,1.2661.0371a11.3014,11.3014,0,0,1,1.4365.1582,10.4125,10.4125,0,0,1,4.8818,1.9961,9.4456,9.4456,0,0,1,2.9336,3.8711,14.227,14.227,0,0,1,0,10.3476,9.45,9.45,0,0,1-2.9336,3.8721,10.415,10.415,0,0,1-4.8818,1.9961q-.6819.0981-1.4487.1455-.767.05-1.2539.0488H174.62V95.9163ZM174.62,78.5076h8.8871c.3247,0,.6856-.0156,1.0835-.0488a8.0752,8.0752,0,0,0,1.1324-.17,4.9637,4.9637,0,0,0,2.5078-1.3516,5.7931,5.7931,0,0,0,1.3633-2.2764,8.4146,8.4146,0,0,0,.414-2.581,8.2971,8.2971,0,0,0-.414-2.5684,5.806,5.806,0,0,0-1.3633-2.2646,4.9617,4.9617,0,0,0-2.5078-1.3516,6.2625,6.2625,0,0,0-1.1324-.1943q-.5968-.0485-1.0835-.0489H174.62Z" />
  <path class="cls-1" d="M204.932,95.9158v-35.06h14.17q.5114,0,1.2662.0371a11.3014,11.3014,0,0,1,1.4365.1582,10.414,10.414,0,0,1,4.8818,1.9961,9.4456,9.4456,0,0,1,2.9336,3.8711,13.3034,13.3034,0,0,1,.9741,5.1621,12.1819,12.1819,0,0,1-2.1426,7.2187,9.4912,9.4912,0,0,1-6.4277,3.7861l-2.07.2432H210.02V95.9163ZM210.02,78.5076h8.8867c.3247,0,.6856-.0156,1.0835-.0488a8.0761,8.0761,0,0,0,1.1323-.17,4.9637,4.9637,0,0,0,2.5078-1.3516,5.79,5.79,0,0,0,1.3633-2.2764,8.4117,8.4117,0,0,0,.4141-2.581,8.2913,8.2913,0,0,0-.4141-2.5684,5.8029,5.8029,0,0,0-1.3633-2.2646,4.9617,4.9617,0,0,0-2.5078-1.3516,6.2614,6.2614,0,0,0-1.1323-.1943q-.597-.0485-1.0835-.0489H210.02Zm15.4121,17.4082L218.518,81.6482l5.1372-1.3144,7.5962,15.582Z" />
  <path class="cls-1" d="M256.11,96.6463a16.6394,16.6394,0,0,1-8.96-2.3008,14.9136,14.9136,0,0,1-5.6607-6.416,24.2176,24.2176,0,0,1,0-19.0879,14.91,14.91,0,0,1,5.6607-6.4151,18.5726,18.5726,0,0,1,17.9072,0,14.8165,14.8165,0,0,1,5.6612,6.4151,24.3574,24.3574,0,0,1,0,19.0879,14.82,14.82,0,0,1-5.6612,6.416A16.6532,16.6532,0,0,1,256.11,96.6463Zm0-4.8448a10.47,10.47,0,0,0,6.1962-1.6435,10.2815,10.2815,0,0,0,3.7129-4.7236,20.559,20.559,0,0,0,0-14.0733,10.2235,10.2235,0,0,0-3.7129-4.6865,10.9114,10.9114,0,0,0-6.1962-1.7041,10.5261,10.5261,0,0,0-6.1968,1.6309A10.2013,10.2013,0,0,0,246.2,71.325a18.9,18.9,0,0,0-1.2661,7.06,18.0147,18.0147,0,0,0,1.2177,7.0245,10.1569,10.1569,0,0,0,3.7373,4.6866,11.0316,11.0316,0,0,0,6.2208,1.705Z" />
  <path class="cls-1" d="M290.1723,95.9158V65.6521H278.51V60.8553h28.4135v4.7968H295.2606V95.9158Z" />
  <path class="cls-1" d="M330.32,96.6463a16.6414,16.6414,0,0,1-8.96-2.3008,14.9187,14.9187,0,0,1-5.66-6.416,24.2159,24.2159,0,0,1,0-19.0879,14.9153,14.9153,0,0,1,5.66-6.4151,18.5746,18.5746,0,0,1,17.9082,0,14.818,14.818,0,0,1,5.6606,6.4151,24.3513,24.3513,0,0,1,0,19.0879,14.82,14.82,0,0,1-5.6606,6.416A16.6566,16.6566,0,0,1,330.32,96.6463Zm0-4.8448a10.4711,10.4711,0,0,0,6.1963-1.6435,10.2751,10.2751,0,0,0,3.7129-4.7236,20.5509,20.5509,0,0,0,0-14.0733,10.2176,10.2176,0,0,0-3.7129-4.6865,10.9127,10.9127,0,0,0-6.1963-1.7041,10.5243,10.5243,0,0,0-6.1963,1.6309,10.2024,10.2024,0,0,0-3.7129,4.7236,18.8815,18.8815,0,0,0-1.2656,7.06,18.0256,18.0256,0,0,0,1.2168,7.0245,10.1592,10.1592,0,0,0,3.7373,4.6866,11.0331,11.0331,0,0,0,6.2207,1.705Z" />
  <path class="cls-1" d="M369.3251,96.6463a17.08,17.08,0,0,1-6.8057-1.3028,12.7922,12.7922,0,0,1-4.9912-3.7246,12.3741,12.3741,0,0,1-2.5439-5.7588l5.3076-.8037a8.3546,8.3546,0,0,0,3.36,5.0039,10.1347,10.1347,0,0,0,5.9649,1.7891,10.9747,10.9747,0,0,0,3.8955-.6689,6.91,6.91,0,0,0,2.86-1.9239,4.443,4.443,0,0,0,1.084-3.0068,3.9264,3.9264,0,0,0-1.2295-2.958,5.5122,5.5122,0,0,0-1.3877-.9492,11.5574,11.5574,0,0,0-1.79-.6944l-8.9834-2.6533a20.5714,20.5714,0,0,1-2.6787-1.0107,9.8526,9.8526,0,0,1-2.4951-1.6319,7.712,7.712,0,0,1-1.8389-2.5078,8.4853,8.4853,0,0,1-.7061-3.64,8.9669,8.9669,0,0,1,1.668-5.49,10.2806,10.2806,0,0,1,4.5166-3.4082,16.8081,16.8081,0,0,1,6.3789-1.1572,16.477,16.477,0,0,1,6.3672,1.2666,12.1951,12.1951,0,0,1,4.6738,3.4941,12.8959,12.8959,0,0,1,2.5694,5.5147l-5.4541.9248a7.23,7.23,0,0,0-1.5586-3.3965,7.9805,7.9805,0,0,0-2.9209-2.1914,9.4441,9.4441,0,0,0-3.75-.791,9.0825,9.0825,0,0,0-3.5664.584,6.2752,6.2752,0,0,0-2.5811,1.7773,3.97,3.97,0,0,0-.9619,2.63,3.2931,3.2931,0,0,0,.8525,2.3613,6.0618,6.0618,0,0,0,2.1055,1.4248,20.7964,20.7964,0,0,0,2.4961.8643l6.4766,1.8262q1.2157.3413,2.7627.913a13.007,13.007,0,0,1,2.9951,1.5947,8.1356,8.1356,0,0,1,2.3984,2.7149,8.5938,8.5938,0,0,1,.9492,4.2481,9.49,9.49,0,0,1-4.0048,8.0224,13.3841,13.3841,0,0,1-4.2979,2.0332A18.9819,18.9819,0,0,1,369.3251,96.6463Z" />
  <path class="cls-1" d="M401.56,95.9158V65.6521H389.8983V60.8553h28.4131v4.7968H406.6493V95.9158Z" />
  <path class="cls-1" d="M423.6666,95.9158l11.3945-35.06H442.39l11.3945,35.06h-5.2832L438.0073,63.9236h1.3146L428.95,95.9158Zm5.917-7.9131V83.2311h18.3085v4.7715Z" />
  <path class="cls-1" d="M463.036,95.9158v-35.06h14.1706q.5112,0,1.2656.0371a11.2848,11.2848,0,0,1,1.4366.1582,10.41,10.41,0,0,1,4.8818,1.9961,9.4426,9.4426,0,0,1,2.9336,3.8711,13.2959,13.2959,0,0,1,.9736,5.1621,12.1788,12.1788,0,0,1-2.1425,7.2187,9.4874,9.4874,0,0,1-6.4278,3.7861l-2.0693.2432h-9.9336V95.9163Zm5.0889-17.4082h8.8867c.3241,0,.6856-.0156,1.084-.0488a8.0669,8.0669,0,0,0,1.1318-.17,4.9633,4.9633,0,0,0,2.5078-1.3516,5.7969,5.7969,0,0,0,1.3633-2.2764,8.3957,8.3957,0,0,0,.4141-2.581,8.2761,8.2761,0,0,0-.4141-2.5684,5.81,5.81,0,0,0-1.3633-2.2646,4.9613,4.9613,0,0,0-2.5078-1.3516,6.256,6.256,0,0,0-1.1318-.1943q-.5976-.0485-1.084-.0489h-8.8867Zm15.4117,17.4082-6.915-14.2676,5.1377-1.3144,7.5966,15.582Z" />
  <circle class="cls-1" cx="70.3206" cy="64.2409" r="5.9311" />
  <circle class="cls-1" cx="92.142" cy="51.7553" r="5.9311" />
  <circle class="cls-1" cx="114.1118" cy="64.3112" r="5.9311" />
  <circle class="cls-1" cx="114.1118" cy="89.6802" r="5.9311" />
  <circle class="cls-1" cx="92.1114" cy="102.3432" r="5.9311" />
  <circle class="cls-1" cx="70.1996" cy="89.7625" r="5.9311" />
  <circle class="cls-1" cx="49.4079" cy="53.5025" r="5.2752" />
  <circle class="cls-1" cx="134.6737" cy="53.5025" r="5.2752" />
  <circle class="cls-1" cx="134.6737" cy="102.5943" r="5.2752" />
  <circle class="cls-1" cx="49.5189" cy="102.4558" r="5.2752" />
  <circle class="cls-1" cx="92.1421" cy="28.7735" r="5.2752" />
  <circle class="cls-1" cx="92.1421" cy="127.0286" r="5.2752" />
  <circle class="cls-1" cx="128.7394" cy="76.7176" r="3.3486" />
  <circle class="cls-1" cx="111.351" cy="108.254" r="3.3486" />
  <circle class="cls-1" cx="74.1576" cy="108.1238" r="3.3486" />
  <circle class="cls-1" cx="55.0301" cy="76.5017" r="3.3486" />
  <circle class="cls-1" cx="74.2348" cy="44.9414" r="3.3486" />
  <circle class="cls-1" cx="111.2682" cy="45.1417" r="3.3486" />
  <path class="cls-1" d="M92.27,97.13h-.1286v-.6015h.128a19.4819,19.4819,0,0,0,.0253-38.9638l.0012-.6015A20.0834,20.0834,0,0,1,92.27,97.13Z" />
  <path class="cls-1" d="M114.0047,59.0937a20.7891,20.7891,0,0,1-17.1356-9.5708l.4982-.3377a20.2146,20.2146,0,0,0,16.6621,9.3076Z" />
  <path class="cls-1" d="M97.3661,104.85l-.5005-.3336c4.1513-6.2137,9.2742-9.19,16.61-9.649l.0376.6C106.383,95.9143,101.4028,98.808,97.3661,104.85Z" />
  <path class="cls-1" d="M95.99,124.5533c-3.0857-5.9875-2.7809-13.4442.8165-19.9463l.5263.2913c-3.5,6.3259-3.8018,13.5706-.8083,19.379Z" />
  <path class="cls-1" d="M88.1371,124.8482,87.62,124.54c3.1057-5.218,4.31-12.959-.0017-18.4919l.4746-.37C92.5792,111.4351,91.348,119.4545,88.1371,124.8482Z" />
  <path class="cls-1" d="M118.6424,87.0837c-4.0038-6.4528-2.9159-14.8006-.2115-19.826l.53.2849c-2.6252,4.8779-3.6849,12.9743.1927,19.2239Z" />
  <path class="cls-1" d="M88.1264,106.0748l8.1428.0541s-4.7936,8.7792-.27,17.7954l-7.7115-.0542S94.4909,114.4583,88.1264,106.0748Z" />
  <path class="cls-1" d="M93.3482,97.2l4.4809,6.7375s3.7024-7.6791,14.6267-8.6846l5.4157-9.7912s-3.4-5.8186-.0662-17.4992C119.7,61.3247,112.856,58.72,112.856,58.72a18.42,18.42,0,0,1-14.8421-7.9023c-1.0475-1.5379-3.952,6.358-3.952,6.358a19.6028,19.6028,0,0,1,15.7056,10.0895c5.1971,9.555-.3807,20.2266-.3807,20.2266S105.22,95.3582,93.3482,97.2Z" />
</svg>
