<svg xmlns="http://www.w3.org/2000/svg" version="1.0" width="512.000000pt" height="512.000000pt" viewBox="0 0 512.000000 512.000000" preserveAspectRatio="xMidYMid meet">

    <g transform="translate(0.000000,512.000000) scale(0.100000,-0.100000)" fill="currentColor" stroke="none">
    <path d="M1446 4176 c-600 -343 -1096 -632 -1103 -642 -10 -14 -13 -84 -13 -309 l0 -292 23 -21 c22 -21 33 -22 190 -22 l167 0 0 -1050 0 -1050 -149 0 c-154 0 -205 -9 -221 -40 -6 -10 -10 -100 -10 -200 0 -179 0 -181 25 -205 l24 -25 2181 0 2181 0 24 25 c25 24 25 26 25 205 0 100 -4 190 -10 200 -16 31 -67 40 -221 40 l-149 0 0 1050 0 1050 168 0 c233 0 212 -33 212 337 0 262 -2 293 -17 312 -27 31 -2173 1254 -2208 1258 -24 2 -244 -120 -1119 -621z m2156 -143 l1028 -587 0 -48 0 -48 -2070 0 -2070 0 0 48 0 47 1028 587 c565 323 1034 588 1042 588 8 0 477 -264 1042 -587z m1028 -913 l0 -70 -2070 0 -2070 0 0 70 0 70 2070 0 2070 0 0 -70z m-3462 -1282 l2 -1048 -150 0 -150 0 0 1050 0 1051 148 -3 147 -3 3 -1047z m2622 2 l0 -1050 -1230 0 -1230 0 0 1050 0 1050 1230 0 1230 0 0 -1050z m460 0 l0 -1050 -150 0 -150 0 0 1043 c0 574 3 1047 7 1050 3 4 71 7 150 7 l143 0 0 -1050z m380 -1285 l0 -75 -2070 0 -2070 0 0 75 0 75 2070 0 2070 0 0 -75z"/>
    <path d="M2444 4121 c-137 -79 -160 -261 -48 -375 87 -88 241 -88 328 0 110 112 89 291 -44 372 -47 27 -63 32 -120 32 -53 0 -74 -5 -116 -29z m176 -158 c39 -50 3 -123 -60 -123 -63 0 -99 73 -60 123 17 21 30 27 60 27 30 0 43 -6 60 -27z"/>
    <path d="M2785 2479 c-32 -18 -45 -40 -45 -77 0 -28 11 -45 62 -98 l61 -64 -321 0 c-176 0 -328 -3 -337 -6 -18 -7 -45 -55 -45 -79 0 -9 13 -30 29 -46 l29 -29 323 0 322 0 -61 -64 c-51 -53 -62 -70 -62 -98 0 -45 34 -78 80 -78 29 0 49 15 162 128 131 128 158 163 158 203 0 28 -275 306 -310 314 -14 2 -34 0 -45 -6z"/>
    <path d="M2323 1638 c-128 -127 -163 -170 -163 -201 0 -23 48 -78 178 -201 134 -128 157 -139 202 -91 41 44 32 77 -40 150 l-64 64 328 3 328 3 24 28 c31 36 31 71 -1 102 l-24 25 -327 0 -327 0 56 59 c31 33 61 71 67 85 12 32 -1 68 -32 90 -47 33 -64 23 -205 -116z"/>
    </g>
    </svg>