<svg xmlns="http://www.w3.org/2000/svg" version="1.0" width="512.000000pt" height="512.000000pt" viewBox="0 0 512.000000 512.000000" preserveAspectRatio="xMidYMid meet">

    <g transform="translate(0.000000,512.000000) scale(0.100000,-0.100000)" fill="currentColor" stroke="none">
    <path d="M2380 5045 c-395 -63 -746 -358 -876 -737 -54 -157 -56 -180 -61 -565 l-5 -362 -176 -3 c-161 -3 -181 -5 -224 -26 -65 -32 -125 -94 -156 -160 l-27 -57 0 -1020 0 -1020 26 -56 c45 -95 132 -167 222 -184 20 -4 37 -10 37 -13 0 -4 -142 -149 -315 -322 -312 -313 -315 -316 -315 -357 0 -57 31 -92 89 -100 l43 -6 1984 1984 c1981 1981 1984 1984 1984 2024 0 22 -7 50 -15 61 -20 29 -69 48 -102 39 -19 -4 -158 -136 -420 -397 l-391 -391 -5 364 c-5 386 -8 412 -60 564 -55 159 -152 312 -277 435 -250 247 -607 360 -960 305z m355 -204 c197 -41 351 -126 487 -270 89 -94 148 -185 191 -292 57 -142 60 -167 64 -546 l5 -353 -116 0 -116 0 0 318 c0 367 -6 410 -74 548 -82 165 -223 289 -401 350 -72 25 -93 28 -215 28 -125 1 -141 -2 -221 -30 -174 -62 -314 -186 -395 -349 -68 -137 -74 -180 -74 -547 l0 -318 -116 0 -116 0 4 353 c5 384 9 414 73 567 89 212 287 405 502 491 167 67 350 85 518 50z m-44 -429 c37 -10 88 -31 115 -47 111 -64 207 -198 233 -323 7 -32 11 -174 11 -357 l0 -305 -490 0 -490 0 0 305 c0 183 4 325 11 357 36 172 174 320 344 369 80 23 185 23 266 1z m-276 -2303 l-1070 -1070 -102 3 c-115 4 -144 17 -175 79 -17 32 -18 100 -18 992 0 1040 -2 1000 55 1045 l28 22 1176 0 1176 0 -1070 -1071z"/>
    <path d="M4077 3240 c-34 -27 -42 -74 -23 -129 14 -38 16 -160 16 -1000 0 -890 -1 -958 -18 -990 -9 -19 -30 -44 -45 -55 -28 -21 -34 -21 -1077 -24 l-1048 -2 -26 -27 c-55 -54 -23 -151 55 -167 55 -11 2008 -7 2078 4 115 19 200 83 250 189 l26 56 0 1015 c0 959 -1 1018 -18 1062 -10 26 -30 57 -44 68 -34 26 -92 26 -126 0z"/>
    </g>
    </svg>