<svg xmlns="http://www.w3.org/2000/svg" viewBox="0 0 500 500" fill="none">
  <path d="M250 498.3C387.132 498.3 498.3 387.132 498.3 250C498.3 112.868 387.132 1.70001 250 1.70001C112.868 1.70001 1.69995 112.868 1.69995 250C1.69995 387.132 112.868 498.3 250 498.3Z" fill="#F97316" />
  <path fill-rule="evenodd" clip-rule="evenodd" d="M267.656 157.509C264.32 151.197 257.689 146.895 250.052 146.895C239.064 146.895 230.156 155.803 230.156 166.791C230.156 177.78 239.064 186.688 250.052 186.688C250.35 186.688 250.645 186.681 250.939 186.668C333.547 187.087 330.416 316.597 249.95 316.597C238.961 316.597 230.053 325.505 230.053 336.494C230.053 342.304 232.543 347.532 236.515 351.17C248.223 368.377 245.341 391.071 236.701 407.689C233.995 410.797 232.356 414.859 232.356 419.304C232.356 429.077 240.279 437 250.053 437C259.826 437 267.749 429.077 267.749 419.304C267.749 415.094 266.279 411.227 263.824 408.189C255.359 390.248 255.975 368.552 265.431 348.993C266.786 347.317 267.874 345.417 268.631 343.356C281.714 324.53 300.918 313.911 323.752 313.911C334.741 313.911 343.649 305.003 343.649 294.014C343.649 289.218 341.952 284.818 339.125 281.382C333.022 270.72 330.659 257.502 331.586 245.214C331.676 244.141 331.786 243.043 331.916 241.919C332.769 235.114 334.652 228.704 337.484 223.31C339.677 219.133 343.649 214.575 343.649 208.911C343.649 197.923 334.741 189.015 323.752 189.015L323.607 189.015C312.44 188.817 301.363 186.24 291.612 180.793C281.901 175.369 273.674 166.869 267.656 157.509ZM335.427 277.902C335.379 277.788 335.329 277.669 335.279 277.546C335.33 277.666 335.382 277.786 335.434 277.906L335.427 277.902Z" fill="white" />
  <path d="M196.341 294.29C196.341 305.279 187.433 314.187 176.444 314.187C165.455 314.187 156.547 305.279 156.547 294.29C156.547 283.302 165.455 274.394 176.444 274.394C187.433 274.394 196.341 283.302 196.341 294.29Z" fill="white" />
  <path d="M136.79 249.806C136.79 256.01 131.76 261.039 125.556 261.039C119.353 261.039 114.323 256.01 114.323 249.806C114.323 243.602 119.353 238.572 125.556 238.572C131.76 238.572 136.79 243.602 136.79 249.806Z" fill="white" />
  <path d="M196.747 208.676C196.747 219.664 187.839 228.572 176.85 228.572C165.862 228.572 156.954 219.664 156.954 208.676C156.954 197.687 165.862 188.779 176.85 188.779C187.839 188.779 196.747 197.687 196.747 208.676Z" fill="white" />
  <path d="M189.98 155.166C196.184 155.166 201.214 150.137 201.214 143.933C201.214 137.729 196.184 132.7 189.98 132.7C183.776 132.7 178.747 137.729 178.747 143.933C178.747 150.137 183.776 155.166 189.98 155.166Z" fill="white" />
  <path d="M106.696 190.349C116.47 190.349 124.392 182.426 124.392 172.652C124.392 162.879 116.47 154.956 106.696 154.956C96.9229 154.956 89 162.879 89 172.652C89 182.426 96.9229 190.349 106.696 190.349Z" fill="white" />
  <path d="M124.765 336.872C124.765 346.645 116.842 354.568 107.069 354.568C97.2954 354.568 89.3726 346.645 89.3726 336.872C89.3726 327.098 97.2954 319.175 107.069 319.175C116.842 319.175 124.765 327.098 124.765 336.872Z" fill="white" />
  <path d="M189.722 367.119C195.926 367.119 200.955 362.089 200.955 355.885C200.955 349.681 195.926 344.652 189.722 344.652C183.518 344.652 178.489 349.681 178.489 355.885C178.489 362.089 183.518 367.119 189.722 367.119Z" fill="white" />
  <path d="M325.724 356.322C325.724 362.526 320.695 367.555 314.491 367.555C308.287 367.555 303.258 362.526 303.258 356.322C303.258 350.118 308.287 345.088 314.491 345.088C320.695 345.088 325.724 350.118 325.724 356.322Z" fill="white" />
  <path d="M392.73 355.032C402.503 355.032 410.426 347.109 410.426 337.336C410.426 327.563 402.503 319.64 392.73 319.64C382.957 319.64 375.034 327.563 375.034 337.336C375.034 347.109 382.957 355.032 392.73 355.032Z" fill="white" />
  <path d="M372.822 261.763C379.026 261.763 384.055 256.734 384.055 250.53C384.055 244.326 379.026 239.296 372.822 239.296C366.618 239.296 361.589 244.326 361.589 250.53C361.589 256.734 366.618 261.763 372.822 261.763Z" fill="white" />
  <path d="M410.426 172.652C410.426 182.426 402.503 190.349 392.73 190.349C382.957 190.349 375.034 182.426 375.034 172.652C375.034 162.879 382.957 154.956 392.73 154.956C402.503 154.956 410.426 162.879 410.426 172.652Z" fill="white" />
  <path d="M325.446 144.605C325.446 150.809 320.417 155.838 314.213 155.838C308.009 155.838 302.98 150.809 302.98 144.605C302.98 138.401 308.009 133.371 314.213 133.371C320.417 133.371 325.446 138.401 325.446 144.605Z" fill="white" />
  <path d="M267.749 89.6962C267.749 99.4696 259.826 107.392 250.052 107.392C240.279 107.392 232.356 99.4696 232.356 89.6962C232.356 79.9229 240.279 72 250.052 72C259.826 72 267.749 79.9229 267.749 89.6962Z" fill="white" />
</svg>
