<svg xmlns="http://www.w3.org/2000/svg" viewBox="0 0 125 108" fill="none">
<path d="M63.0634 104.089C89.7634 104.089 111.463 82.3886 111.463 55.6886C111.463 28.9886 89.7634 7.28857 63.0634 7.28857C36.3634 7.38857 14.6634 28.9886 14.6634 55.7886C14.6634 82.4886 36.3634 104.089 63.0634 104.089Z" fill="#FAFAFA" stroke="#D4D4D4" stroke-width="2" stroke-miterlimit="10"/>
<path d="M94.8633 47.8885V83.7886C94.8633 85.9886 93.0633 87.7886 90.8633 87.7886H33.9633C31.7633 87.7886 29.9633 85.9886 29.9633 83.7886V47.8885C29.9633 45.6885 31.8633 43.8885 33.9633 43.8885H90.8633C92.5633 43.8885 93.9633 44.8885 94.6633 46.3885C94.7633 46.7885 94.8633 47.2885 94.8633 47.8885Z" fill="#FAFAFA" stroke="#D4D4D4" stroke-width="2" stroke-miterlimit="10"/>
<path d="M122.963 43.6886C124.563 42.1886 124.663 39.6886 123.263 38.0886C121.763 36.4886 119.263 36.3886 117.663 37.7886C116.063 39.2886 115.963 41.7886 117.363 43.3886C118.863 45.0886 121.363 45.1886 122.963 43.6886Z" fill="#FAFAFA"/>
<path d="M123.263 26.1886C123.963 25.5886 123.963 24.4886 123.363 23.8886C122.763 23.1886 121.663 23.1886 121.063 23.7886C120.463 24.3886 120.363 25.4886 120.963 26.0886C121.563 26.7886 122.563 26.7886 123.263 26.1886Z" fill="#FAFAFA"/>
<path d="M81.4633 1.98854C81.9633 1.58854 81.9633 0.788544 81.5633 0.388544C81.1633 -0.111456 80.4633 -0.111456 79.9633 0.288544C79.4633 0.688544 79.4633 1.38854 79.8633 1.88854C80.2633 2.38854 80.9633 2.38854 81.4633 1.98854Z" fill="#FAFAFA"/>
<path d="M115.463 24.8886L101.263 50.0886C100.763 50.8886 99.6634 51.1886 98.8634 50.6886L74.6634 36.5886C73.8634 36.0886 73.5634 34.9886 74.0634 34.1886L92.7634 2.08859C93.2634 1.28859 94.3634 0.988585 95.1634 1.48859L112.763 11.7886L115.463 24.8886Z" fill="white" stroke="#D4D4D4" stroke-width="2" stroke-miterlimit="10"/>
<path d="M112.563 11.6885L108.563 18.4885C108.063 19.4885 108.363 20.6885 109.263 21.2885L115.363 24.7885" fill="#D4D4D4"/>
<path d="M95.9634 18.2885C96.3634 18.1885 96.7633 18.1885 97.0633 18.1885C97.4633 18.1885 97.8634 18.1885 98.2634 18.1885C98.6634 18.2885 99.1633 18.3885 99.5633 18.4885C100.063 18.6885 100.463 18.8885 100.863 19.0885C101.463 19.3885 101.963 19.7885 102.463 20.2885C102.863 20.6885 103.163 21.1885 103.363 21.8885C103.563 22.3885 103.563 22.9885 103.563 23.5885C103.463 24.1885 103.263 24.7885 102.963 25.3885C102.663 25.8885 102.363 26.2885 101.963 26.6885C101.563 26.9885 101.263 27.1885 100.763 27.3885C100.363 27.5885 99.9633 27.6885 99.5633 27.6885L98.4634 27.7885C98.1634 27.7885 97.8634 27.8885 97.4634 27.9885C97.1634 28.0885 96.9634 28.1885 96.7634 28.3885L95.6633 29.8885L93.7634 28.8885L94.5633 26.9885C94.6633 26.6885 94.9633 26.3885 95.1633 26.1885C95.4633 25.9885 95.7633 25.8885 96.0633 25.7885C96.4633 25.6885 96.7633 25.6885 97.1633 25.5885C97.5633 25.5885 97.9634 25.4885 98.3634 25.3885C98.7634 25.2885 99.0634 25.1885 99.4634 24.9885C99.8634 24.7885 100.063 24.4885 100.263 24.0885C100.363 23.8885 100.463 23.5885 100.563 23.2885C100.563 22.9885 100.563 22.7885 100.463 22.5885C100.363 22.2885 100.263 22.0885 100.063 21.8885C99.8633 21.6885 99.6634 21.4885 99.3634 21.2885C99.0634 21.0885 98.6634 20.8885 98.2634 20.7885C97.9634 20.6885 97.6634 20.6885 97.3634 20.6885C97.0634 20.6885 96.8633 20.6885 96.6633 20.6885C96.5633 20.6885 96.3634 20.6885 96.2634 20.5885C96.0634 20.4885 95.8634 20.1885 95.8634 19.9885L95.9634 18.2885ZM90.4634 32.3885C90.5634 32.1885 90.7634 31.9885 90.9634 31.7885C91.1634 31.6885 91.3633 31.4885 91.5633 31.4885C92.0633 31.3885 92.5633 31.3885 93.0633 31.6885C93.2633 31.7885 93.4633 31.9885 93.6633 32.1885C93.7633 32.3885 93.8634 32.5885 93.9634 32.7885C94.2634 33.7885 93.6633 34.8885 92.6633 35.1885C92.1633 35.2885 91.6633 35.1885 91.1633 34.9885C90.9633 34.8885 90.7633 34.6885 90.5633 34.4885C90.4633 34.2885 90.2634 34.0885 90.2634 33.8885C90.1634 33.6885 90.1634 33.3885 90.2634 33.1885C90.2634 32.7885 90.3634 32.5885 90.4634 32.3885Z" fill="#D4D4D4"/>
<path d="M24.4634 13.9885L40.7634 30.8885C41.2634 31.4885 41.2634 32.3885 40.6634 32.9885L24.0634 48.5885C23.4634 49.0885 22.5634 49.0885 21.9634 48.4885L1.36335 26.5885C0.863353 25.9885 0.863353 25.0885 1.46335 24.4885L13.4634 13.1885L24.4634 13.9885Z" fill="white" stroke="#D4D4D4" stroke-width="2" stroke-miterlimit="10"/>
<path d="M13.4633 13.0885L17.9633 17.7885C18.5633 18.3885 19.6633 18.3885 20.3633 17.7885L24.4633 13.8885" fill="#D4D4D4"/>
<path d="M14.6634 27.5886C14.6634 27.2886 14.7634 26.9886 14.8634 26.6886C14.9634 26.3886 15.0634 26.0886 15.1634 25.7886C15.2634 25.4886 15.4634 25.1886 15.6634 24.8886C15.8634 24.5886 16.1634 24.2886 16.4634 23.9886C16.8634 23.5886 17.2634 23.2886 17.7634 23.0886C18.1634 22.8886 18.6634 22.7886 19.0634 22.7886C19.4634 22.7886 19.9634 22.8886 20.3634 22.9886C20.7634 23.1886 21.1634 23.4886 21.5634 23.7886C21.8634 24.0886 22.1634 24.4886 22.2634 24.8886C22.3634 25.1886 22.4634 25.5886 22.5634 25.9886C22.5634 26.2886 22.5634 26.6886 22.5634 26.9886C22.4634 27.2886 22.4634 27.5886 22.3634 27.8886C22.3634 28.1886 22.2634 28.3886 22.2634 28.6886C22.2634 28.8886 22.2634 29.0886 22.4634 29.2886L23.2634 30.4886L22.0634 31.5886L20.8634 30.4886C20.6634 30.2886 20.4634 30.0886 20.3634 29.7886C20.2634 29.4886 20.2634 29.2886 20.2634 28.9886C20.2634 28.6886 20.3634 28.3886 20.3634 28.0886C20.4634 27.7886 20.4634 27.4886 20.4634 27.1886C20.4634 26.8886 20.4634 26.5886 20.3634 26.2886C20.2634 25.9886 20.0634 25.6886 19.8634 25.3886C19.7634 25.1886 19.5634 25.0886 19.3634 24.9886C19.1634 24.8886 18.9634 24.8886 18.7634 24.8886C18.5634 24.8886 18.3634 24.9886 18.1634 25.0886C17.9634 25.1886 17.7634 25.2886 17.5634 25.4886C17.3634 25.6886 17.1634 25.9886 16.9634 26.1886C16.8634 26.3886 16.7634 26.5886 16.6634 26.8886C16.5634 27.0886 16.5634 27.2886 16.5634 27.3886C16.5634 27.4886 16.4634 27.5886 16.3634 27.6886C16.2634 27.8886 15.9634 27.8886 15.7634 27.7886L14.6634 27.5886ZM24.4634 35.0886C24.3634 34.9886 24.2634 34.7886 24.1634 34.5886C24.0634 34.3886 24.0634 34.1886 24.0634 33.9886C24.0634 33.5886 24.2634 33.1886 24.5634 32.8886C24.6634 32.7886 24.8634 32.6886 25.0634 32.5886C25.2634 32.4886 25.4634 32.4886 25.6634 32.4886C26.2634 32.4886 26.8634 32.8886 27.1634 33.4886C27.2634 33.6886 27.2634 33.8886 27.2634 34.0886C27.2634 34.2886 27.1634 34.4886 27.1634 34.6886C27.0634 34.8886 26.9634 34.9886 26.7634 35.1886C26.6634 35.2886 26.4634 35.4886 26.2634 35.4886C25.8634 35.5886 25.4634 35.5886 25.1634 35.4886C24.7634 35.3886 24.5634 35.2886 24.4634 35.0886Z" fill="#D4D4D4"/>
<path d="M66.6633 40.5885L60.3633 63.0885C60.1633 63.7885 59.3633 64.2885 58.5633 63.9885L36.6633 57.5885C35.9633 57.3885 35.4633 56.5885 35.7633 55.7885L44.2633 26.8885C44.4633 26.1885 45.2633 25.6885 46.0633 25.9885L61.9633 30.5885L66.6633 40.5885Z" fill="white" stroke="#D4D4D4" stroke-width="2" stroke-miterlimit="10"/>
<path opacity="0.1" d="M94.8633 47.8886V83.7886C94.8633 85.9886 93.0633 87.7886 90.8633 87.7886H33.9633C31.7633 87.7886 29.9633 85.9886 29.9633 83.7886V56.0886H53.2633C55.5633 56.0886 57.8633 55.2886 59.5633 53.7886L65.8633 48.5886C67.6633 47.1886 69.8633 46.2886 72.1633 46.2886H94.5633C94.7633 46.7886 94.8633 47.2886 94.8633 47.8886Z" fill="#A3A3A3"/>
<path d="M61.9634 30.6885L60.0634 36.9885C59.8634 37.7885 60.3634 38.7885 61.1634 39.0885L66.6634 40.7885" fill="#D4D4D4"/>
<path d="M50.0633 39.0885C50.3633 38.9885 50.6633 38.8885 50.9633 38.7885C51.2633 38.6885 51.5633 38.5885 51.9633 38.5885C52.3633 38.5885 52.6633 38.5885 53.0633 38.5885C53.4633 38.5885 53.8633 38.6885 54.2633 38.7885C54.7633 38.8885 55.2633 39.1885 55.7633 39.4885C56.1633 39.7885 56.4633 40.0885 56.7633 40.4885C56.9633 40.8885 57.1633 41.2885 57.2633 41.6885C57.3633 42.1885 57.2633 42.6885 57.1633 43.1885C57.0633 43.5885 56.8633 43.9885 56.5633 44.3885C56.3633 44.6885 56.0633 44.9885 55.7633 45.1885C55.4633 45.3885 55.1633 45.5885 54.8633 45.6885L53.9633 46.1885C53.7633 46.2885 53.4633 46.3885 53.2633 46.4885C53.0633 46.5885 52.8633 46.7885 52.8633 46.9885L52.2633 48.2885L50.5633 47.7885L50.8633 46.0885C50.8633 45.7885 51.0633 45.5885 51.2633 45.3885C51.4633 45.1885 51.6633 44.9885 51.9633 44.8885C52.2633 44.7885 52.5633 44.6885 52.7633 44.5885C53.0633 44.4885 53.3633 44.3885 53.6633 44.1885C53.9633 44.0885 54.1633 43.8885 54.4633 43.6885C54.6633 43.4885 54.8633 43.1885 54.9633 42.7885C55.0633 42.5885 55.0633 42.3885 55.0633 42.1885C55.0633 41.9885 54.9633 41.7885 54.8633 41.5885C54.7633 41.3885 54.5633 41.2885 54.3633 41.0885C54.1633 40.9885 53.9633 40.8885 53.6633 40.7885C53.3633 40.6885 53.0633 40.6885 52.6633 40.6885C52.4633 40.6885 52.1633 40.6885 51.9633 40.7885C51.7633 40.7885 51.5633 40.8885 51.4633 40.8885C51.3633 40.8885 51.2633 40.9885 51.0633 40.8885C50.8633 40.8885 50.6633 40.6885 50.6633 40.4885L50.0633 39.0885ZM48.4633 51.3885C48.5633 51.1885 48.5633 50.9885 48.7633 50.8885C48.8633 50.6885 49.0633 50.5885 49.1633 50.4885C49.5633 50.2885 49.9633 50.2885 50.2633 50.3885C50.4633 50.4885 50.6633 50.5885 50.7633 50.6885C50.8633 50.7885 51.0633 50.9885 51.1633 51.0885C51.5633 51.7885 51.2633 52.7885 50.5633 53.1885C50.1633 53.3885 49.7633 53.3885 49.4633 53.2885C49.2633 53.1885 49.0633 53.1885 48.9633 52.9885C48.7633 52.8885 48.6633 52.6885 48.5633 52.5885C48.4633 52.3885 48.4633 52.2885 48.3633 52.0885C48.3633 51.7885 48.3633 51.5885 48.4633 51.3885Z" fill="#D4D4D4"/>
<path d="M117.963 78.9885L97.3633 90.1885C96.6633 90.5885 95.7633 90.2885 95.4633 89.5885L85.0633 69.4885C84.7633 68.7885 84.9633 67.8885 85.6633 67.5885L112.463 53.3885C113.163 52.9885 114.063 53.2885 114.363 53.9885L121.863 68.5885L117.963 78.9885Z" fill="white" stroke="#D4D4D4" stroke-width="2" stroke-miterlimit="10"/>
<path d="M121.863 68.6885L116.063 71.6885C115.363 72.0885 114.963 73.1885 115.363 73.9885L117.963 79.0885" fill="#D4D4D4"/>
<path d="M107.563 65.9885C107.863 66.0885 108.163 66.2885 108.463 66.3885C108.763 66.4885 109.063 66.6885 109.363 66.9885C109.663 67.2885 109.863 67.4885 110.163 67.7885C110.463 68.0885 110.663 68.4885 110.863 68.7885C111.163 69.1885 111.263 69.7885 111.363 70.2885C111.463 70.7885 111.363 71.2885 111.363 71.7885C111.163 72.1885 111.063 72.6885 110.863 72.9885C110.563 73.3885 110.063 73.6885 109.763 73.8885C109.363 74.0885 108.963 74.2885 108.463 74.2885C108.063 74.3885 107.663 74.3885 107.263 74.2885C106.863 74.1885 106.563 74.0885 106.263 73.9885L105.363 73.5885C105.163 73.4885 104.863 73.3885 104.663 73.2885C104.463 73.1885 104.163 73.1885 103.963 73.3885L102.563 73.8885L101.763 72.3885L103.163 71.4885C103.363 71.2885 103.663 71.2885 103.963 71.2885C104.263 71.2885 104.563 71.2885 104.863 71.4885C105.163 71.5885 105.463 71.7885 105.663 71.8885C105.963 71.9885 106.263 72.1885 106.563 72.2885C106.863 72.3885 107.163 72.4885 107.463 72.4885C107.763 72.4885 108.163 72.3885 108.463 72.1885C108.863 71.9885 109.163 71.5885 109.263 71.1885C109.363 70.9885 109.263 70.7885 109.263 70.4885C109.163 70.2885 109.163 70.0885 108.963 69.7885C108.863 69.4885 108.563 69.2885 108.363 68.8885C108.263 68.7885 107.963 68.4885 107.763 68.4885C107.663 68.3885 107.363 68.2885 107.363 68.1885C107.263 68.0885 107.163 68.0885 107.063 67.8885C106.963 67.7885 106.963 67.4885 107.063 67.2885L107.563 65.9885ZM97.6634 73.3885C97.8634 73.2885 98.0634 73.1885 98.2634 73.2885C98.4634 73.1885 98.6634 73.2885 98.8634 73.2885C99.2634 73.4885 99.5634 73.6885 99.7634 73.9885C99.8634 74.1885 99.8634 74.3885 99.8634 74.5885C99.8634 74.6885 99.8634 74.9885 99.8634 75.1885C99.7634 75.5885 99.3634 75.8885 99.0634 76.0885C98.8634 76.1885 98.6634 76.1885 98.4634 76.1885C98.3634 76.1885 98.0634 76.1885 97.8634 76.1885C97.4634 75.9885 97.1634 75.7885 96.9634 75.4885C96.9634 75.1885 96.9634 74.9885 96.9634 74.7885C96.8634 74.5885 96.9634 74.3885 96.9634 74.1885C97.0634 73.9885 97.1634 73.7885 97.1634 73.6885C97.3634 73.5885 97.5634 73.4885 97.6634 73.3885Z" fill="#D4D4D4"/>
<path d="M93.6633 55.5885H73.6633C71.7633 55.5885 69.8633 56.2885 68.3633 57.4885L63.0633 61.7885C61.5633 62.9885 59.6633 63.6885 57.7633 63.6885H34.9633C32.6633 63.6885 30.7633 65.4885 30.7633 67.7885C30.7633 67.9885 30.7633 68.1885 30.8633 68.3885L34.9633 90.2885C35.2633 92.3885 37.0633 93.8885 39.1633 93.8885H87.7633C89.8633 93.8885 91.5633 92.3885 91.9633 90.3885L97.7633 60.3885C98.0633 58.1885 96.6633 55.9885 94.2633 55.6885C94.0633 55.5885 93.8633 55.5885 93.6633 55.5885Z" fill="white"/>
<path d="M99.2634 51.5885H75.2634C72.9634 51.5885 70.6634 52.3885 68.9634 53.8885L62.6634 58.9885C60.8634 60.4885 58.6634 61.2885 56.3634 61.2885H29.0634C26.3634 61.2885 24.0634 63.4885 24.0634 66.2885C24.0634 66.4885 24.0634 66.7885 24.1634 66.9885L29.1634 93.4885C29.5634 95.9885 31.6634 97.8885 34.1634 97.8885H92.1634C94.6634 97.8885 96.7634 96.0885 97.1634 93.6885L104.063 57.3885C104.463 54.6885 102.763 52.0885 99.9634 51.6885C99.7634 51.5885 99.4634 51.5885 99.2634 51.5885Z" fill="white" stroke="#D4D4D4" stroke-width="2" stroke-miterlimit="10"/>
<path d="M73.1634 78.9886C74.5634 78.9886 75.7634 77.7886 75.7634 76.3886C75.7634 74.9886 74.5634 73.7886 73.1634 73.7886C71.7634 73.7886 70.5634 74.9886 70.5634 76.3886C70.5634 77.8886 71.6634 78.9886 73.1634 78.9886Z" fill="#A3A3A3"/>
<path d="M68.5634 83.3886H67.2634C66.1634 80.9886 63.2634 80.0886 60.9634 81.2886C60.0634 81.6886 59.2634 82.4886 58.8634 83.3886H57.5634C58.6634 80.2886 62.2634 78.6886 65.2634 79.8886C66.6634 80.4886 67.9634 81.6886 68.5634 83.3886Z" fill="#A3A3A3"/>
<path d="M105.963 106.488C104.763 106.488 105.163 106.588 96.1633 97.5885C87.3633 104.088 75.3633 97.7885 75.3633 87.1885C75.3633 79.9885 81.1633 74.1885 88.3633 74.1885C98.7633 74.1885 105.063 85.7885 99.0633 94.5885L107.463 102.988C108.663 104.288 107.763 106.488 105.963 106.488ZM88.3633 78.2885C83.4633 78.2885 79.4633 82.2885 79.4633 87.1885C79.4633 92.0885 83.4633 96.0885 88.3633 96.0885C88.8633 96.0885 89.4633 96.0885 89.9633 95.9885C90.4633 95.8885 90.9633 95.7885 91.4633 95.5885C91.9633 95.3885 92.4633 95.1885 92.8633 94.8885C93.3633 94.5885 93.8633 94.1885 94.2633 93.7885C94.6633 93.4885 94.9633 93.0885 95.2633 92.6885C95.5633 92.2885 95.8633 91.7885 96.1633 91.3885C96.3633 90.8885 96.6633 90.3885 96.7633 89.8885C96.9633 89.3885 97.0633 88.8885 97.0633 88.3885C97.1633 87.9885 97.1633 87.5885 97.1633 87.1885C97.2633 82.2885 93.2633 78.2885 88.3633 78.2885Z" fill="#D4D4D4" stroke="#A3A3A3" stroke-width="2" stroke-miterlimit="10"/>
<path d="M53.1634 78.9886C54.5634 78.9886 55.7634 77.7886 55.7634 76.3886C55.7634 74.9886 54.5634 73.7886 53.1634 73.7886C51.7634 73.7886 50.5634 74.9886 50.5634 76.3886C50.6634 77.8886 51.7634 78.9886 53.1634 78.9886Z" fill="#A3A3A3"/>
</svg>
